<svg xmlns="http://www.w3.org/2000/svg" xmlns:xlink="http://www.w3.org/1999/xlink" width="172" height="248" viewBox="0 0 172 248"><defs><style>.cls-1,.cls-6{fill:none;}.cls-1{stroke:#78703b;stroke-width:0.25px;}.cls-1,.cls-3,.cls-5,.cls-6{stroke-miterlimit:10;}.cls-2{fill:#edbcda;}.cls-3{fill:#dd6ba4;}.cls-3,.cls-5,.cls-6{stroke:#040405;stroke-width:0.5px;}.cls-4{isolation:isolate;}.cls-5{fill:#94c6bf;}</style></defs><g id="kasse1"><g id="luftballon"><line id="Line_2" data-name="Line 2" class="cls-1" x1="98.63" y1="144.99" x2="98.73" y2="170.16"/><line id="Line_1" data-name="Line 1" class="cls-1" x1="67.84" y1="149.71" x2="67.94" y2="174.89"/><rect id="Rectangle_29" data-name="Rectangle 29" class="cls-2" x="62.65" y="188.92" width="43.04" height="24.24" transform="translate(-0.77 0.32) rotate(-0.22)"/><path id="Path_6" data-name="Path 6" class="cls-2" d="M84,157.49,54.25,189.15l59.75-.22Z"/><path id="Path_2" data-name="Path 2" class="cls-2" d="M143,74.2a61.9,61.9,0,0,1-11.32,36h0l0,.05-.14.18-1.65,2.22-.08.11-26.41,35.49-44.73.17L31.89,113.07l-.05-.07-1.35-1.78c-.15-.19-.3-.39-.43-.59A62.28,62.28,0,1,1,143,74.2Z"/><path id="Path_3" data-name="Path 3" class="cls-2" d="M31.82,115.14l1.34,1.78C32.7,116.34,32.24,115.74,31.82,115.14Z"/><path id="Path_4" data-name="Path 4" class="cls-2" d="M31.38,114.55c.14.2.28.39.44.59l-.45-.59Z"/><path id="Path_5" data-name="Path 5" class="cls-2" d="M133,114.16l0,0,0,0Z"/><g id="Group_7" data-name="Group 7"><g id="Group_6" data-name="Group 6"><path id="Path_7" data-name="Path 7" class="cls-3" d="M151.28,77.87A62,62,0,0,1,140,113.92h0l0,0-.13.19-1.65,2.22-.08.1L111.64,152l-44.73.17L40.14,116.74l0-.07-1.34-1.78c-.16-.19-.3-.38-.44-.58a62.28,62.28,0,1,1,113-36.44Z"/><path id="Path_8" data-name="Path 8" class="cls-3" d="M38.75,114.89l1.34,1.78C39.63,116.09,39.17,115.5,38.75,114.89Z"/><path id="Path_9" data-name="Path 9" class="cls-3" d="M38.31,114.31c.14.2.28.39.44.58l-.45-.58Z"/><path id="Path_10" data-name="Path 10" class="cls-3" d="M140,113.92l0,0,0,0Z"/><image id="Rectangle_30" data-name="Rectangle 30" class="cls-4" width="690" height="702" transform="matrix(0.18, 0, 0, 0.18, 26.42, 16)" xlink:href="Artboard%201%20copy1.png"/></g><path id="Path_11" data-name="Path 11" class="cls-5" d="M89.31,160.23,59.56,191.9l59.74-.23Z"/><rect id="Rectangle_31" data-name="Rectangle 31" class="cls-5" x="67.96" y="191.78" width="43.04" height="24.24" transform="translate(-0.78 0.34) rotate(-0.22)"/><line id="Line_3" data-name="Line 3" class="cls-6" x1="73.19" y1="152.11" x2="73.29" y2="177.28"/><line id="Line_4" data-name="Line 4" class="cls-6" x1="105.33" y1="151.98" x2="105.43" y2="177.16"/></g></g></g></svg>