<svg xmlns="http://www.w3.org/2000/svg" width="400" height="400" viewBox="0 0 400 400"><defs><style>.cls-1{fill:none;stroke:#000;stroke-miterlimit:10;}</style></defs><g id="kasse10"><path class="cls-1" d="M118.91,154.06s-14.38,84.55-9.33,193.51H290s5.81-172-9.79-193.51H262.05s-3.42,16.46-3.42,85.46l17.88,49.83s5.12,22.17-6.88,2.17-9-44-25,1c0,0-9.72,18.4-6.36-5.3l15.36-47.7s-3.39-83.3-10.69-103.15H222.42l.47,135-18.26-38.86s9.47-1.21,4.73-17.6c0,0-2-45.74-9.35-48.07s-10.23,48.07-10.23,48.07-3.15,15.6,5.85,16.6l-18.44,39.86-1.4-135H158.07s-10.44,73.15-11.44,109.15l15.17,41.7s4.32,25-7.92,2.13-8.25-35.83-24.25,2.17c0,0-12.12,20.4-6.06-4.3L139.42,242s4.06-73.38-1.86-87.91Z"/><line class="cls-1" x1="121.7" y1="347.57" x2="121.7" y2="298.04"/><polyline class="cls-1" points="177.19 271.38 161.34 298.95 161.34 347.57"/><polyline class="cls-1" points="237.85 347.46 237.85 298.04 222.89 271.38"/><line class="cls-1" x1="278.84" y1="347.46" x2="277.56" y2="298.04"/><line class="cls-1" x1="110.39" y1="237.2" x2="140.22" y2="223.36"/><line class="cls-1" x1="108.8" y1="275.77" x2="130.81" y2="266.56"/><line class="cls-1" x1="148.39" y1="218.26" x2="176.51" y2="205.58"/><line class="cls-1" x1="222.66" y1="207.22" x2="250.86" y2="218.26"/><line class="cls-1" x1="258.7" y1="223.36" x2="290.57" y2="236.46"/><line class="cls-1" x1="267.48" y1="264.18" x2="290.57" y2="275.77"/><path class="cls-1" d="M253.63,239.52s2.5-12.5,5,0"/><path class="cls-1" d="M139.42,242s1.71-9.95,7.21,3.55"/><line class="cls-1" x1="177.19" y1="198.57" x2="192.16" y2="189.77"/><line class="cls-1" x1="207.21" y1="189.77" x2="222.63" y2="198.57"/><line class="cls-1" x1="177.19" y1="218.26" x2="190.17" y2="209.31"/><line class="cls-1" x1="209.05" y1="209.31" x2="223.13" y2="220.02"/><ellipse class="cls-1" cx="114.63" cy="255.52" rx="2.5" ry="11.5"/><ellipse class="cls-1" cx="131.63" cy="245.52" rx="2.5" ry="11.5"/><ellipse class="cls-1" cx="122.63" cy="250.52" rx="2.5" ry="11.5"/><ellipse class="cls-1" cx="153.63" cy="239.52" rx="2.5" ry="11.5"/><ellipse class="cls-1" cx="170.63" cy="229.52" rx="2.5" ry="11.5"/><ellipse class="cls-1" cx="161.63" cy="234.52" rx="2.5" ry="11.5"/><ellipse class="cls-1" cx="229.63" cy="229.52" rx="2.5" ry="11.5"/><ellipse class="cls-1" cx="246.63" cy="239.52" rx="2.5" ry="11.5"/><ellipse class="cls-1" cx="237.63" cy="234.52" rx="2.5" ry="11.5"/><ellipse class="cls-1" cx="267.63" cy="245.52" rx="2.5" ry="11.5"/><ellipse class="cls-1" cx="284.63" cy="255.52" rx="2.5" ry="11.5"/><ellipse class="cls-1" cx="275.63" cy="250.52" rx="2.5" ry="11.5"/><path class="cls-1" d="M119.8,146.64h16.37s3-26.56-7-30.59S119.8,146.64,119.8,146.64Z"/><path class="cls-1" d="M159.13,127.64h17.79s1.48-30.86-7.66-28.74S159.13,127.64,159.13,127.64Z"/><path class="cls-1" d="M223.13,127.64H242.3s0-24.06-9.58-28.84S223.13,127.64,223.13,127.64Z"/><path class="cls-1" d="M129.19,88.36s-15,7,0,19.31C129.19,107.67,146.24,96.69,129.19,88.36Z"/><path class="cls-1" d="M169.07,88.36s-16.06-9.62,0-18.48C169.07,69.88,182,78.69,169.07,88.36Z"/><path class="cls-1" d="M232.72,69.88s-16.42,8.81,0,18.48C232.72,88.36,248.3,78.74,232.72,69.88Z"/><path class="cls-1" d="M270.05,88.36s-14.08,7,0,19.31C270.05,107.67,283,98.69,270.05,88.36Z"/><polygon class="cls-1" points="119.8 146.64 136.17 146.64 137.56 154.06 118.91 154.06 119.8 146.64"/><polygon class="cls-1" points="159.13 127.64 158.07 136.37 175.79 136.37 176.92 127.64 159.13 127.64"/><polygon class="cls-1" points="223.13 127.64 222.42 136.37 242.94 136.37 242.3 127.64 223.13 127.64"/><line class="cls-1" x1="129.19" y1="79.12" x2="129.19" y2="88.36"/><line class="cls-1" x1="168.38" y1="60.52" x2="169.07" y2="69.88"/><line class="cls-1" x1="232.72" y1="60.52" x2="232.72" y2="69.88"/><line class="cls-1" x1="269.79" y1="79.12" x2="270.05" y2="88.36"/><line class="cls-1" x1="232.72" y1="88.36" x2="232.72" y2="98.8"/><line class="cls-1" x1="129.19" y1="107.67" x2="129.13" y2="116.05"/><line class="cls-1" x1="169.07" y1="88.36" x2="169.26" y2="98.9"/><line class="cls-1" x1="270.05" y1="107.67" x2="270.13" y2="115.52"/><polyline class="cls-1" points="204.63 232.52 222.89 245.03 248.33 255.99"/><polyline class="cls-1" points="195.63 231.52 176.92 245.03 151.36 258.51"/><path class="cls-1" d="M126.79,347.46V317.55s4.68-14.46,10,0v29.91"/><path class="cls-1" d="M143.86,347.58v-29.9s4.68-14.46,10,0v29.9"/><path class="cls-1" d="M184.86,347.58v-29.9s4.68-14.46,10,0v29.9"/><path class="cls-1" d="M206.86,347.58v-29.9s4.68-14.46,10,0v29.9"/><path class="cls-1" d="M246.86,347.58v-29.9s4.68-14.46,10,0v29.9"/><path class="cls-1" d="M262.86,347.58v-29.9s4.68-14.46,10,0v29.9"/><ellipse class="cls-1" cx="199.63" cy="292.52" rx="9.5" ry="12.5"/><path class="cls-1" d="M176.51,347.46V295.59s-.29-10.62,8.17-6.59c0,0-3.08-11.43,5.19-12.21,0,0-.74-6.93,9.76-16.35,0,0,10.5,8.1,9.5,16.84,0,0,8.58-2.38,5.79,13.18,0,0,8.21-4.8,8.21,4.88v52.12"/><path class="cls-1" d="M262.81,146h16.36s3-26.76-7-30.82S262.81,146,262.81,146Z"/><polygon class="cls-1" points="262.81 146.04 279.17 146.04 280.13 154.02 262.13 154.02 262.81 146.04"/><ellipse class="cls-1" cx="199.63" cy="159.52" rx="4.5" ry="6.5"/><line class="cls-1" x1="165.76" y1="136.37" x2="164.13" y2="211.16"/><line class="cls-1" x1="170.63" y1="136.37" x2="170.63" y2="208.23"/><line class="cls-1" x1="162.45" y1="136.37" x2="158.07" y2="213.78"/><line class="cls-1" x1="128.19" y1="154.06" x2="125.31" y2="230.28"/><line class="cls-1" x1="134.13" y1="154.02" x2="132.13" y2="227.02"/><line class="cls-1" x1="122.63" y1="154.06" x2="117.13" y2="233.96"/><line class="cls-1" x1="232.72" y1="136.37" x2="235.13" y2="212.02"/><line class="cls-1" x1="227.13" y1="136.37" x2="229.63" y2="209.95"/><line class="cls-1" x1="237.63" y1="136.37" x2="244.13" y2="215.62"/><line class="cls-1" x1="271.19" y1="154.06" x2="274.64" y2="229.91"/><line class="cls-1" x1="266.67" y1="154.18" x2="267.63" y2="227.02"/><line class="cls-1" x1="275.79" y1="154.18" x2="282.13" y2="232.52"/></g></svg>