<svg xmlns="http://www.w3.org/2000/svg" width="400" height="400" viewBox="0 0 400 400"><defs><style>.cls-1{fill:none;stroke:#000;stroke-miterlimit:10;}</style></defs><g id="kasse10"><path class="cls-1" d="M161.13,361h78.16V166.43h-7.58l.42-56.41h-8.47s5.63-36-23.45-35.48S177.13,109,177.13,109h-9v57l-7,.41Z"/><path class="cls-1" d="M188.13,166h22.75V133.27s-8.75-22.75-22.75,0Z"/><circle class="cls-1" cx="200.13" cy="309.02" r="26"/><polygon class="cls-1" points="199.71 324.04 197.06 315.88 189.21 319.34 193.11 311.7 185.11 308.6 193.28 305.95 189.81 298.1 197.46 302 200.56 294 203.2 302.16 211.06 298.7 207.15 306.34 215.15 309.45 206.99 312.09 210.45 319.94 202.81 316.04 199.71 324.04"/><path class="cls-1" d="M194.13,65s6-8,12,0c3,4-1.49,6-6,6S191.13,69,194.13,65Z"/><line class="cls-1" x1="200.12" y1="61.46" x2="200.21" y2="47.21"/><line class="cls-1" x1="200.13" y1="71.02" x2="200.21" y2="74.54"/></g></svg>