<svg xmlns="http://www.w3.org/2000/svg" width="400" height="400" viewBox="0 0 400 400"><defs><style>.cls-1{fill:none;stroke:#000;stroke-miterlimit:10;}</style></defs><g id="kasse10"><rect class="cls-1" x="49.13" y="267.82" width="77.23" height="46.2"/><polyline class="cls-1" points="126.36 267.82 148.56 232.3 171.13 264.02 170.76 314.02 126.36 314.02"/><polyline class="cls-1" points="49.13 267.82 72.68 232.3 89.63 232.3 148.56 232.3"/><polyline class="cls-1" points="90.13 232.02 90.13 204.02 123.94 204.02 123.94 232.3"/><polyline class="cls-1" points="123.94 204.02 135.24 185.02 102.13 185.02 90.13 204.02"/><polyline class="cls-1" points="133.63 232.3 133.63 205.66 146.95 185.02 181.66 185.02 168.13 206.02 133.13 206.02"/><line class="cls-1" x1="167.71" y1="259.22" x2="168.13" y2="206.02"/><line class="cls-1" x1="135.24" y1="185.02" x2="142.19" y2="192.39"/><polyline class="cls-1" points="181.66 185.02 193.89 204.02 193.89 241.99 171.13 255.88 171.13 264.02"/><polyline class="cls-1" points="214.13 279.52 214.13 256.37 194.13 242.02"/><polyline class="cls-1" points="193.89 314.02 224.13 314.02 224.13 287.02 209.13 276.02 193.89 287.81 193.89 314.02 170.76 314.02"/><polyline class="cls-1" points="203.63 211.02 232.63 211.52 261.13 245.02 233.13 246.02 204.13 212.5 204.13 249.2"/><polyline class="cls-1" points="224.13 314.02 232.38 314.02 233.13 246.02"/><polyline class="cls-1" points="261.13 260.02 328.23 260.02 351.13 275.02 351.13 314.02 286.96 314.02"/><line class="cls-1" x1="280.31" y1="216.02" x2="280.31" y2="260.02"/><line class="cls-1" x1="336.13" y1="215.02" x2="336.13" y2="265.2"/><polyline class="cls-1" points="351.13 275.02 286.96 276.02 286.96 314.02 237.13 314.02 237.13 275.02 261.13 260.02 261.13 245.02"/><rect class="cls-1" x="61.13" y="276.02" width="6" height="11"/><rect class="cls-1" x="77.13" y="276.02" width="6" height="11"/><rect class="cls-1" x="93.13" y="276.02" width="6" height="11"/><rect class="cls-1" x="108.13" y="276.02" width="6" height="11"/><rect class="cls-1" x="61.13" y="294.02" width="6" height="11"/><rect class="cls-1" x="77.13" y="294.02" width="6" height="11"/><rect class="cls-1" x="93.13" y="294.02" width="6" height="11"/><rect class="cls-1" x="108.13" y="294.02" width="6" height="11"/><rect class="cls-1" x="96.13" y="211.02" width="6" height="11"/><rect class="cls-1" x="111.13" y="211.02" width="6" height="11"/><polyline class="cls-1" points="96.13 232.62 96.13 228.49 102.13 228.49 102.13 232.3"/><polyline class="cls-1" points="111.13 232.3 111.13 228.49 117.13 228.49 117.13 232.3"/><line class="cls-1" x1="261.13" y1="260.02" x2="286.96" y2="276.02"/><polyline class="cls-1" points="258.13 182.02 314.54 182.02 336.13 215.02 280.31 216.02 258.13 182.02 237.13 216.02"/><polyline class="cls-1" points="219.05 211.02 219.13 106.02 199.57 63.02 180.13 106.02 180.13 185.52"/><line class="cls-1" x1="180.63" y1="106.02" x2="219.13" y2="106.02"/><rect class="cls-1" x="140.13" y="212.02" width="6" height="11"/><rect class="cls-1" x="155.13" y="212.02" width="6" height="11"/><rect class="cls-1" x="155.13" y="230.02" width="6" height="11"/><rect class="cls-1" x="182.13" y="268.02" width="6" height="11"/><rect class="cls-1" x="197.13" y="268.02" width="6" height="11"/><rect class="cls-1" x="182.13" y="285.02" width="6" height="11"/><rect class="cls-1" x="200.13" y="294.02" width="6" height="11"/><rect class="cls-1" x="212.13" y="294.02" width="6" height="11"/><rect class="cls-1" x="250.13" y="281.02" width="6" height="11"/><rect class="cls-1" x="265.13" y="281.02" width="6" height="11"/><rect class="cls-1" x="250.13" y="299.02" width="6" height="11"/><rect class="cls-1" x="265.13" y="299.02" width="6" height="11"/><rect class="cls-1" x="293.13" y="229.02" width="5" height="10"/><rect class="cls-1" x="308.13" y="229.02" width="5" height="10"/><rect class="cls-1" x="323.13" y="229.02" width="5" height="10"/><rect class="cls-1" x="293.13" y="246.02" width="5" height="10"/><rect class="cls-1" x="308.13" y="246.02" width="5" height="10"/><rect class="cls-1" x="323.13" y="246.02" width="5" height="10"/><rect class="cls-1" x="264.13" y="229.02" width="5" height="10"/><rect class="cls-1" x="264.13" y="246.02" width="5" height="10"/><rect class="cls-1" x="238.13" y="252.02" width="5" height="10"/><rect class="cls-1" x="251.13" y="252.02" width="5" height="10"/><path class="cls-1" d="M185.13,146h9.76V119.76s-4.76-7.25-9.76,0Z"/><path class="cls-1" d="M184.71,184.61h9.75V158.36s-4.75-7.26-9.75,0Z"/><path class="cls-1" d="M203.71,145.61h9.75V119.36s-4.75-7.26-9.75,0Z"/><path class="cls-1" d="M203.71,184.61h9.75V158.36s-4.75-7.26-9.75,0Z"/></g></svg>