<svg xmlns="http://www.w3.org/2000/svg" width="400" height="400" viewBox="0 0 400 400"><defs><style>.cls-1{fill:none;stroke:#000;stroke-miterlimit:10;}</style></defs><g id="Layer_13" data-name="Layer 13"><path class="cls-1" d="M58.13,138s-11,33-12,47-4,22,3,36a50.05,50.05,0,0,1,2.25,15.26S52.13,240,67.13,267c0,0,2,10-5,3s-14-33-14-33,1,18,20,46,56,63,119,70,132-41,145-80c0,0,16-36,17-51,0,0,1-2-2-8s2.16-7.93,2.16-7.93-6.84-11.26,0-9.66c0,0,2.84-14.41-5.16-8.41,0,0-3,1-8-3s-6-1-6,3-7,25,0,30c0,0,5,16-2,9,0,0-18-25-29-23s-9,5-22,5c-2,0-27.19-5-15.6,4,0,0,3.6,3,7.6-3s16,4,14,9-14.82,22.69-19.41,26.84S256.13,255,249.13,244a48.06,48.06,0,0,0-17-16s-9-10-9,0,23,25,23,25,5,5,22-1c0,0,10-5-4,19,0,0-8,13-13,17s-3,19-2,20,4,7,16-1,0,14-1,15-13,11-10,0c0,0,5-7-2-9s-5,3-7,5-8,2-10,11-23,17-26,17-24,5-34-19c0,0-4-4,1-14,0,0,3-8-14-22,0,0,1-13-5-12s-5,1-7-2,0-3-10-3-27,1-32-19-13-14,1-37c0,0,6-10,7-10s6-3,11-11,27-3,31-3,9.64-2,11.82,6a11.64,11.64,0,0,0,10.18,9c1,0,3,5,12,0s12,0,20,0,9-1,12-7-2-8-3-4-5.73,4-6.86,2-3.14-4-10.14-2c0,0-3-17-6-7,0,0,4,7-2,7s-9-13-11-15-14-10-5,1,1,12-1,12-5-5-1-7-6-9-7-9-2-2-2,4-2,5-3,3,3-10-5-9-5,1-7,4,1,5-9,8-11,4-14-4,5-13,10-13,11,1,6-9c0,0-4-4,5-5,0,0,4-1-3-3s1-7,1-7-16,5-8-4c0,0,3-4,7-4s4-4,6-5,6-2,3,6,2,19,7,11a7.94,7.94,0,0,1,7-4s2,1,3-9c0,0-7,5-5-7,0,0,0-6,7-8s2-6,9-11,12-5,19-3c0,0,7,7,12,1s3-6-1-9-4-3-3-8,4-3,6,1,5,8,6,0c0,0,4-5,0-10s-6-3-7-4-8-3,4-6c0,0,12,2,13-4s-5-4-7-4-6-1-1-5-2-6-4-6-18.26-9.5-23.13-6.25S182.13,52,177.13,53s-21,6-14,9,2,2,1,3-1,3,4,5,5,3,5,7,11,9,3,13-22,14-23,16-7,6-1,10-5,4-6,4-7-1-1-9-5-3-6-3-24,12-18,0,28-27,30-27,11-7-1-7c0,0-4-1-9,6s-12,12-14,12-9-1,0-9c0,0,12-5,4-6,0,0-8,2-10-3,0,0-6,3-9,6s-9,8-2,9,11,3,3,10-7,15-15,20-13,12-10,1,1-8-3-1-6,1-7,1-1-4-8,4-11,10-5-1,38-47,51-54,42-21,71-22,60,5,78,15a169.56,169.56,0,0,1,36,27c5,5,16,14,11,16s6,8,7,7,1-4,4,0,13,22,14,25,3,18,3,21,3,7,4,7,0-9,0-9a75.65,75.65,0,0,1,5,26"/></g></svg>