<svg xmlns="http://www.w3.org/2000/svg" width="400" height="400" viewBox="0 0 400 400"><defs><style>.cls-1{fill:none;stroke:#000;stroke-miterlimit:10;}</style></defs><g id="kasse10"><polyline class="cls-1" points="119.13 114.02 119.13 94.02 108.13 94.02 108.13 114.02"/><rect class="cls-1" x="45.13" y="114.02" width="104" height="232"/><line class="cls-1" x1="149.13" y1="346.02" x2="231.13" y2="346.02"/><polyline class="cls-1" points="175.13 184.02 175.13 167.02 163.13 167.02 163.13 184.02 149.13 184.02 231.13 184.02"/><line class="cls-1" x1="274.13" y1="194.02" x2="274.13" y2="225.02"/><polyline class="cls-1" points="294.63 175.02 231.13 175.02 231.13 184.02 231.13 346.02"/><polyline class="cls-1" points="350.13 175.02 350.13 152.02 338.13 152.02 338.13 175.02 329.13 175.02 329.13 162.02 317.13 162.02 317.13 175.02 301.63 175.02 364.13 175.02 364.13 346.02 231.13 346.02"/><rect class="cls-1" x="58.13" y="194.02" width="16" height="26"/><line class="cls-1" x1="66.13" y1="194.52" x2="66.13" y2="220.52"/><line class="cls-1" x1="58.13" y1="203.02" x2="74.13" y2="203.02"/><rect class="cls-1" x="90.39" y="194.21" width="16" height="26"/><line class="cls-1" x1="98.39" y1="194.71" x2="98.39" y2="220.71"/><line class="cls-1" x1="90.39" y1="203.21" x2="106.39" y2="203.21"/><rect class="cls-1" x="122.39" y="194.21" width="16" height="26"/><line class="cls-1" x1="130.39" y1="194.71" x2="130.39" y2="220.71"/><line class="cls-1" x1="122.39" y1="203.21" x2="138.39" y2="203.21"/><rect class="cls-1" x="58.26" y="238.12" width="16" height="26"/><line class="cls-1" x1="66.26" y1="238.62" x2="66.26" y2="264.62"/><line class="cls-1" x1="58.26" y1="247.12" x2="74.26" y2="247.12"/><rect class="cls-1" x="90.52" y="238.31" width="16" height="26"/><line class="cls-1" x1="98.52" y1="238.81" x2="98.52" y2="264.81"/><line class="cls-1" x1="90.52" y1="247.31" x2="106.52" y2="247.31"/><rect class="cls-1" x="122.52" y="238.31" width="16" height="26"/><line class="cls-1" x1="130.52" y1="238.81" x2="130.52" y2="264.81"/><line class="cls-1" x1="122.52" y1="247.31" x2="138.52" y2="247.31"/><rect class="cls-1" x="58.26" y="279.12" width="16" height="26"/><line class="cls-1" x1="66.26" y1="279.62" x2="66.26" y2="305.62"/><line class="cls-1" x1="58.26" y1="288.12" x2="74.26" y2="288.12"/><rect class="cls-1" x="90.52" y="279.31" width="16" height="26"/><line class="cls-1" x1="98.52" y1="279.81" x2="98.52" y2="305.81"/><line class="cls-1" x1="90.52" y1="288.31" x2="106.52" y2="288.31"/><rect class="cls-1" x="122.52" y="279.31" width="16" height="26"/><line class="cls-1" x1="130.52" y1="279.81" x2="130.52" y2="305.81"/><line class="cls-1" x1="122.52" y1="288.31" x2="138.52" y2="288.31"/><polygon class="cls-1" points="76.91 154.58 76.91 176.58 54.91 176.58 54.91 154.58 65.7 148.02 76.91 154.58"/><polygon class="cls-1" points="110.13 155.02 110.13 177.02 88.13 177.02 88.13 155.02 98.92 148.46 110.13 155.02"/><polygon class="cls-1" points="142.13 155.02 142.13 177.02 120.13 177.02 120.13 155.02 130.92 148.46 142.13 155.02"/><polygon class="cls-1" points="180.13 223.54 180.13 237.02 158.13 237.02 158.13 223.54 168.92 219.52 180.13 223.54"/><polygon class="cls-1" points="222.13 223.54 222.13 237.02 200.13 237.02 200.13 223.54 210.92 219.52 222.13 223.54"/><rect class="cls-1" x="155.94" y="254.52" width="12.7" height="17.07"/><line class="cls-1" x1="162.29" y1="254.85" x2="162.29" y2="271.92"/><line class="cls-1" x1="155.94" y1="260.43" x2="168.63" y2="260.43"/><rect class="cls-1" x="213.59" y="254.89" width="12.7" height="17.07"/><line class="cls-1" x1="219.94" y1="255.21" x2="219.94" y2="272.29"/><line class="cls-1" x1="213.59" y1="260.79" x2="226.29" y2="260.79"/><rect class="cls-1" x="213.42" y="286.07" width="12.7" height="17.07"/><line class="cls-1" x1="219.76" y1="286.4" x2="219.76" y2="303.47"/><line class="cls-1" x1="213.42" y1="291.98" x2="226.11" y2="291.98"/><rect class="cls-1" x="173.69" y="254.45" width="12.7" height="17.07"/><line class="cls-1" x1="180.03" y1="254.78" x2="180.03" y2="271.85"/><line class="cls-1" x1="173.69" y1="260.36" x2="186.38" y2="260.36"/><rect class="cls-1" x="156.13" y="286.64" width="12.7" height="17.07"/><line class="cls-1" x1="162.48" y1="286.97" x2="162.48" y2="304.04"/><line class="cls-1" x1="156.13" y1="292.55" x2="168.83" y2="292.55"/><rect class="cls-1" x="173.88" y="286.57" width="12.7" height="17.07"/><line class="cls-1" x1="180.23" y1="286.9" x2="180.23" y2="303.97"/><line class="cls-1" x1="173.88" y1="292.48" x2="186.57" y2="292.48"/><rect class="cls-1" x="239.99" y="251.52" width="14.64" height="23.7"/><line class="cls-1" x1="247.31" y1="251.98" x2="247.31" y2="275.68"/><line class="cls-1" x1="239.99" y1="259.73" x2="254.63" y2="259.73"/><rect class="cls-1" x="265.02" y="251.96" width="14.64" height="23.7"/><line class="cls-1" x1="272.34" y1="252.42" x2="272.34" y2="276.12"/><line class="cls-1" x1="265.02" y1="260.17" x2="279.66" y2="260.17"/><rect class="cls-1" x="290.02" y="251.96" width="14.64" height="23.7"/><line class="cls-1" x1="297.34" y1="252.42" x2="297.34" y2="276.12"/><line class="cls-1" x1="290.02" y1="260.17" x2="304.66" y2="260.17"/><rect class="cls-1" x="315.02" y="251.96" width="14.64" height="23.7"/><line class="cls-1" x1="322.34" y1="252.42" x2="322.34" y2="276.12"/><line class="cls-1" x1="315.02" y1="260.17" x2="329.66" y2="260.17"/><rect class="cls-1" x="341.02" y="251.96" width="14.64" height="23.7"/><line class="cls-1" x1="348.34" y1="252.42" x2="348.34" y2="276.12"/><line class="cls-1" x1="341.02" y1="260.17" x2="355.66" y2="260.17"/><rect class="cls-1" x="239.66" y="298.32" width="14.64" height="23.7"/><line class="cls-1" x1="246.98" y1="298.77" x2="246.98" y2="322.48"/><line class="cls-1" x1="239.66" y1="306.52" x2="254.3" y2="306.52"/><rect class="cls-1" x="264.68" y="298.76" width="14.64" height="23.7"/><line class="cls-1" x1="272.01" y1="299.22" x2="272.01" y2="322.92"/><line class="cls-1" x1="264.68" y1="306.97" x2="279.33" y2="306.97"/><rect class="cls-1" x="289.68" y="298.76" width="14.64" height="23.7"/><line class="cls-1" x1="297.01" y1="299.22" x2="297.01" y2="322.92"/><line class="cls-1" x1="289.68" y1="306.97" x2="304.33" y2="306.97"/><rect class="cls-1" x="340.67" y="298.54" width="14.64" height="23.7"/><line class="cls-1" x1="347.99" y1="299" x2="347.99" y2="322.7"/><line class="cls-1" x1="340.67" y1="306.75" x2="355.31" y2="306.75"/><rect class="cls-1" x="122.13" y="311.02" width="16" height="35"/><rect class="cls-1" x="315.13" y="298.02" width="17" height="33"/><polygon class="cls-1" points="332.13 331.02 315.13 331.02 303.13 346.02 344.13 346.02 332.13 331.02"/><path class="cls-1" d="M215.13,325a10.51,10.51,0,0,0-21,0v21h21Z"/><polyline class="cls-1" points="231.13 225.02 274.13 225.02 274.13 222.02 274.13 194.02 298.13 172.02 322.13 194.02 322.13 225.02 364.13 225.02"/><circle class="cls-1" cx="298.63" cy="203.52" r="9.5"/></g></svg>