<svg xmlns="http://www.w3.org/2000/svg" xmlns:xlink="http://www.w3.org/1999/xlink" width="61.89mm" height="96.36mm" viewBox="0 0 175.43 273.14"><defs><style>.cls-1,.cls-4,.cls-7{fill:none;}.cls-2{fill:#fff;}.cls-3{fill:#f5d198;}.cls-4{stroke:#868254;stroke-width:0.25px;}.cls-4,.cls-5,.cls-6,.cls-7{stroke-miterlimit:10;}.cls-5{fill:#dc694e;}.cls-5,.cls-6,.cls-7{stroke:#5b6c57;}.cls-6{fill:#bcd2b6;}.cls-6,.cls-7{stroke-width:0.5px;}.cls-8{fill:url(#lille_prik_2);}</style><pattern id="lille_prik_2" data-name="lille prik 2" width="4.97" height="2.84" patternUnits="userSpaceOnUse" viewBox="0 0 4.97 2.84"><rect class="cls-1" width="4.97" height="2.84"/><circle class="cls-2" cx="4.97" cy="2.84" r="0.71"/><circle class="cls-2" cy="2.84" r="0.71"/><circle class="cls-2" cx="4.97" r="0.71"/><circle class="cls-2" cx="2.48" cy="1.42" r="0.71"/><circle class="cls-2" r="0.71"/></pattern></defs><g id="Layer_2" data-name="Layer 2"><g id="Layer_1-2" data-name="Layer 1"><path class="cls-3" d="M167.76,83.89a83.46,83.46,0,0,1-15.43,48.49h0a.21.21,0,0,1,0,.06l-.18.25-2.23,3-.11.14L114,183.47H53.76l-35.87-47.8-.07-.09L16,133.17c-.21-.26-.4-.52-.58-.79A83.88,83.88,0,1,1,167.76,83.89Z"/><path class="cls-3" d="M15.81,133l1.8,2.41C17,134.61,16.38,133.81,15.81,133Z"/><path class="cls-3" d="M15.23,132.2c.18.27.37.53.58.79l-.6-.79Z"/><path class="cls-3" d="M152.12,132.2l-.05.06a.21.21,0,0,0,0-.06Z"/><polygon class="cls-3" points="83.67 194.31 43.44 236.8 123.9 236.8 83.67 194.31"/><rect class="cls-3" x="54.69" y="236.8" width="57.96" height="32.65"/><line class="cls-4" x1="62" y1="183.29" x2="62" y2="217.19"/><line class="cls-4" x1="105.29" y1="183.29" x2="105.29" y2="217.19"/><path class="cls-5" d="M174.93,87.15a83.46,83.46,0,0,1-15.43,48.49h0a.21.21,0,0,1,0,.06l-.18.25-2.23,3-.11.14-35.76,47.66H60.93l-35.87-47.8-.07-.09-1.8-2.41c-.21-.26-.4-.52-.58-.79A83.88,83.88,0,1,1,174.93,87.15Z"/><polygon class="cls-6" points="91.05 197.75 50.82 240.24 131.28 240.24 91.05 197.75"/><rect class="cls-6" x="62.07" y="240.24" width="57.96" height="32.65"/><line class="cls-7" x1="69.38" y1="186.73" x2="69.38" y2="220.63"/><line class="cls-7" x1="112.67" y1="186.73" x2="112.67" y2="220.63"/><path class="cls-8" d="M23.19,136.43l1.8,2.41.07.09L49.15,171Q72,162.82,95.34,156c15.54-4.55,31.18-8.78,46.81-13,5-1.35,9.93-2.66,14.88-4h0l2.23-3,.18-.25a.21.21,0,0,0,0-.06h0a83.89,83.89,0,1,0-136.89,0C22.79,135.91,23,136.17,23.19,136.43Z"/></g></g></svg>