<svg xmlns="http://www.w3.org/2000/svg" width="400" height="400" viewBox="0 0 400 400"><defs><style>.cls-1{fill:none;stroke:#000;stroke-miterlimit:10;}</style></defs><g id="kasse10"><path class="cls-1" d="M188.13,63,172.9,192.16,167.13,241,149,342.72l21.15,3.3,12-102,32-179S209.13,26,188.13,63Z"/><path class="cls-1" d="M172.9,192.16,142.13,61s-22-26-26,8l51,172"/><polyline class="cls-1" points="177.71 281.64 192.82 346.02 214.13 341.89 183.27 237.66"/><polygon class="cls-1" points="243.13 160.02 254.68 160.02 255.13 183.02 243.13 183.02 243.13 160.02"/><polygon class="cls-1" points="268.53 183.02 279.13 185.02 282.13 164.02 271.13 162.02 268.53 183.02"/><line class="cls-1" x1="249.13" y1="183.02" x2="243.13" y2="353.96"/><line class="cls-1" x1="274.13" y1="184.02" x2="255.13" y2="353.96"/><path class="cls-1" d="M243.13,163.68s-29,7.34-20,18.34,20-14.7,20-14.7"/><path class="cls-1" d="M281.79,166.39S305.13,175,298.13,187s-16.82-17.23-16.82-17.23"/><line class="cls-1" x1="233.13" y1="336.02" x2="252.13" y2="337.02"/><line class="cls-1" x1="267.13" y1="338.02" x2="248.13" y2="333.02"/></g></svg>