<svg xmlns="http://www.w3.org/2000/svg" width="400" height="400" viewBox="0 0 400 400"><defs><style>.cls-1{fill:none;stroke:#000;stroke-miterlimit:10;}</style></defs><g id="kasse10"><path class="cls-1" d="M162.32,275.92l-14.46-24h17.88l12.12-52-8.69-18.42h12.94c6.47-6.09,12.17-106.18,12.17-106.18h-4.94V61.29h4.56l6.53-16.77,6.12,17.15h4.12V75.61h-4.21c-1.14,34.87,13.89,104.72,13.89,104.72h12L224,200.93l15.22,53.3h19L246.42,279c21.69,10.34,48.84,76.39,48.84,76.39H251.37s-4.19-53.24-48.33-52.36-54.55,52.36-54.55,52.36H105.61C133.37,293.35,162.32,275.92,162.32,275.92Zm19.9-23.41h37.92l-6.39-32.57H189.31Z"/></g></svg>