<svg xmlns="http://www.w3.org/2000/svg" width="400" height="400" viewBox="0 0 400 400"><defs><style>.cls-1{fill:none;stroke:#000;stroke-miterlimit:10;}</style></defs><g id="kasse10"><path class="cls-1" d="M148.92,216.29s28.23-42.17,74.46-60.38c36-14.16,82.82-13.83,135.75,32.11,0,0-23.26-10.16-26.13,11.42,0,0-29.43-25.27-47.65,7.16,0,0-31.12-26-53.17,9.69,0,0-26.22-19.78-43.14,5C189,221.27,179.7,197.56,148.92,216.29Z"/><path class="cls-1" d="M243.13,150s-19.9,31.54-10.95,66.27"/><path class="cls-1" d="M254,148.3s35.55,29.87,31.33,58.3"/><path class="cls-1" d="M276.91,148.3s46,18.56,56.09,51.14"/><path class="cls-1" d="M223.38,155.91S187,184.51,189,221.27"/><polyline class="cls-1" points="254.03 198.28 287.13 304.02 294.13 302.02 261.01 197.44"/><path class="cls-1" d="M223.38,378.36S201.13,335,86.13,343s32.25-42.39,68.63-51.69S146.13,277,146.13,277s-37.24-3.58,63.88-26.29S177.13,241,177.13,241s-51.92,9.49,29-19.75"/><line class="cls-1" x1="19.63" y1="221.27" x2="261.22" y2="221.27"/><line class="cls-1" x1="268.55" y1="221.27" x2="380.18" y2="221.27"/></g></svg>