<svg xmlns="http://www.w3.org/2000/svg" width="400" height="400" viewBox="0 0 400 400"><defs><style>.cls-1{fill:none;stroke:#000;stroke-miterlimit:10;}</style></defs><g id="kasse10"><path class="cls-1" d="M289.13,197l-1-8-21-2-10-24V138l-8-1-24-42c-85,1-144,41-144,41l-1,11-11,7-8-3c-13,8-14,23-14,23l-6.5,123.5s214,17,319,4v-73c4.5-34.46-65.5-36.54-65.5-36.54l-5,5,12,45,18,2,5,31,15,29"/><path class="cls-1" d="M44.13,222s136-40,223-35"/><path class="cls-1" d="M42.06,270.48c.07-.46,166.79-25.2,279.43-11.83"/><path class="cls-1" d="M52.13,211l11-4V193.83s-4-18.1-11,2Z"/><path class="cls-1" d="M76.6,200.72l11.24-2V179s-6.77-22.32-11.24,7.34Z"/><path class="cls-1" d="M101.13,194l17-3V171s-8-24.06-17,0Z"/><path class="cls-1" d="M131.25,186.59,153.13,183V160.28s-8.77-25.94-21.88,2.4Z"/><path class="cls-1" d="M167.13,182c1,0,27-2,27-2V155.7s-14-26.55-27,1.89Z"/><path class="cls-1" d="M209.13,179l31-1-1-27s-14-27-30,0Z"/><path class="cls-1" d="M52.13,258.64l11-1.62V240.8s-6-20.67-11,2.27Z"/><path class="cls-1" d="M75.54,254.69l12.3-1.24v-21.2s-5.77-17.76-11.24,0Z"/><path class="cls-1" d="M101.13,252.16l17-1.63V226.86s-9-22.16-17,0Z"/><path class="cls-1" d="M131.25,248.91h21.88V219.4s-8.77-23.62-21.88,0Z"/><path class="cls-1" d="M167.13,245.45h27V214.86s-13-24.16-27,0Z"/><path class="cls-1" d="M209.13,245.45h29.54V214.21s-14.54-27.81-29.54,0Z"/><path class="cls-1" d="M253.92,245.45h25.94V214.21s-11.16-27.81-25.94,0Z"/><path class="cls-1" d="M52.13,298.38V286.86s5-18.17,11,0v12.28"/><path class="cls-1" d="M75.54,300l1.06-13.75s4.94-20.81,11.24,0v14.52"/><path class="cls-1" d="M101.13,300.73l1-16.71s6-24,16,0v18.42"/><path class="cls-1" d="M131.25,302.44V283s9.88-26,21.88-1v22.1"/><path class="cls-1" d="M167.13,304.09V282.64s14-29.38,27,0v22.88"/><path class="cls-1" d="M209.13,305.52V280.37s13.08-24.65,29.54,0v25.15"/><path class="cls-1" d="M253.92,306.42V278.78s10.67-22.23,25.94,0v26.74"/><path class="cls-1" d="M294.45,305.52V280.7s9.78-20.33,21.73,0v24.36"/><path class="cls-1" d="M351.57,302.44V283.61s-9.7-27.23-19.07,7.59"/><path class="cls-1" d="M334.67,252.16l16.9,3.89V228.91s-7.36-21.27-16.9-1.08Z"/><path class="cls-1" d="M319.13,244V222s-8.38-17-18.19,0l.19,20"/></g></svg>