<svg xmlns="http://www.w3.org/2000/svg" width="400" height="400" viewBox="0 0 400 400"><defs><style>.cls-1{fill:none;stroke:#000;stroke-miterlimit:10;}</style></defs><g id="kasse10"><polyline class="cls-1" points="299.63 272.52 299.63 151.52 297.25 135.52 360.63 135.52 357.63 152.52 357.61 272.52 41.63 272.52 41.63 151.32 38.53 135.52 104.07 135.52 101.13 151.02 101.27 167.87 102.13 272.52"/><line class="cls-1" x1="101.63" y1="168.02" x2="299.63" y2="168.02"/><line class="cls-1" x1="101.63" y1="191.02" x2="299.63" y2="191.02"/><line class="cls-1" x1="101.63" y1="231.02" x2="299.63" y2="231.02"/><line class="cls-1" x1="41.63" y1="151.32" x2="101.13" y2="151.02"/><line class="cls-1" x1="299.63" y1="151.52" x2="357.63" y2="152.52"/><path class="cls-1" d="M186.49,272.52l-.36-23.5s13.65-24,28.83,0v23.5"/><rect class="cls-1" x="110.13" y="174.02" width="15" height="12"/><rect class="cls-1" x="137.13" y="174.02" width="15" height="12"/><rect class="cls-1" x="165.13" y="174.02" width="15" height="12"/><rect class="cls-1" x="192.13" y="174.02" width="15" height="12"/><rect class="cls-1" x="221.13" y="174.02" width="15" height="12"/><rect class="cls-1" x="249.13" y="174.02" width="15" height="12"/><rect class="cls-1" x="277.13" y="174.02" width="15" height="12"/><path class="cls-1" d="M80.63,256.87V236.68c-9.07-20.61-17.23,0-17.23,0l.22,20.19Z"/><path class="cls-1" d="M80.43,221.27V201.08c-9.08-20.61-17.23,0-17.23,0l.21,20.19Z"/><path class="cls-1" d="M337.43,257.27V237.08c-9.08-20.61-17.23,0-17.23,0l.21,20.19Z"/><path class="cls-1" d="M337.43,221.27V201.08c-9.08-20.61-17.23,0-17.23,0l.21,20.19Z"/><path class="cls-1" d="M207.63,216.27V202c-7.6-14.58-14.43,0-14.43,0l.18,14.27Z"/><path class="cls-1" d="M180,216.29V202c-7.6-14.57-14.43,0-14.43,0l.17,14.27Z"/><path class="cls-1" d="M152,216.29V202c-7.6-14.57-14.43,0-14.43,0l.17,14.27Z"/><path class="cls-1" d="M123,216.29V202c-7.6-14.57-14.43,0-14.43,0l.17,14.27Z"/><path class="cls-1" d="M236,216.29V202c-7.6-14.57-14.43,0-14.43,0l.17,14.27Z"/><path class="cls-1" d="M263,216.29V202c-7.6-14.57-14.43,0-14.43,0l.17,14.27Z"/><path class="cls-1" d="M292,216.29V202c-7.6-14.57-14.43,0-14.43,0l.17,14.27Z"/><path class="cls-1" d="M123,257.29V243c-7.6-14.57-14.43,0-14.43,0l.17,14.27Z"/><path class="cls-1" d="M152,257.29V243c-7.6-14.57-14.43,0-14.43,0l.17,14.27Z"/><path class="cls-1" d="M180,257.29V243c-7.6-14.57-14.43,0-14.43,0l.17,14.27Z"/><path class="cls-1" d="M235.53,257.29V243c-7.6-14.57-14.43,0-14.43,0l.17,14.27Z"/><path class="cls-1" d="M264.53,257.29V243c-7.6-14.57-14.43,0-14.43,0l.17,14.27Z"/><path class="cls-1" d="M292.53,257.29V243c-7.6-14.57-14.43,0-14.43,0l.17,14.27Z"/><path class="cls-1" d="M61.63,184.29V173.44c-5.28-11.07-10,0-10,0l.12,10.85Z"/><path class="cls-1" d="M76.83,183.83V173c-5.28-11.07-10,0-10,0l.13,10.85Z"/><path class="cls-1" d="M92.83,183.83V173c-5.28-11.07-10,0-10,0l.13,10.85Z"/><path class="cls-1" d="M318.23,184.06V173.21c-5.28-11.07-10,0-10,0l.12,10.85Z"/><path class="cls-1" d="M333.43,183.6V172.75c-5.28-11.07-10,0-10,0l.13,10.85Z"/><path class="cls-1" d="M349.43,183.6V172.75c-5.28-11.07-10,0-10,0l.13,10.85Z"/></g></svg>