<svg xmlns="http://www.w3.org/2000/svg" width="400" height="400" viewBox="0 0 400 400"><defs><style>.cls-1{fill:none;stroke:#000;stroke-miterlimit:10;}</style></defs><g id="kasse10"><path class="cls-1" d="M259.81,175.79c5.14,8.77,0,14.23,0,14.23l-14.08,10,6.94,173.52H136.13L142.58,200l-13.38-9s-5.15-3.46,0-15.23"/><path class="cls-1" d="M157,103s29.83,9,80.22,1c0,0-6.17-2-7.2-8-8.37-15-24.87-23-40.11-20-16,3.14-23.63,17-24.68,19C165.19,95,163.13,103,157,103Z"/><path class="cls-1" d="M163.61,149.31S135,152,133.46,155.82c-.5,1.28,2,2.7,9.6,4.2,30.36,6,93.21,4,108.07,0s9.27-8.42-21.37-10.71"/><path class="cls-1" d="M259,156.56l.56,14.46s11.55,4-10.22,9-83.13,3-106.78,0-9.26-9-9.26-9l.15-15.2"/><polyline class="cls-1" points="163.61 134.18 169.07 154.28 185.76 108.02 204.88 156.56 221.75 108.02 229.76 135.91 229.76 139.58 226.22 154.28 210.44 108.02 191.31 155.82 174.41 107.33 163.61 138.07 163.61 154.28 164.16 108.02 179.53 155.82 197.07 109.02 216.44 155.82 229.76 107.33 229.76 105.1 229.76 154.28"/><path class="cls-1" d="M196.69,49.42v7.14S189.87,56,188.85,62,194,69,194,69v3l-6.53,4.57"/><path class="cls-1" d="M206.45,76.59,199.13,72v-3s5-2.07,4.55-6.06-2.24-5.92-7-6.45"/><path class="cls-1" d="M140.18,264.45s60.63,10.42,108.13,0"/><path class="cls-1" d="M139.2,290.92s59.62,10.9,110.17,0"/><path class="cls-1" d="M138.25,316.39s50.26,13.37,112.13,0"/><path class="cls-1" d="M137.28,342.6s67.73,10.58,114.15,0"/></g></svg>