<svg xmlns="http://www.w3.org/2000/svg" xmlns:xlink="http://www.w3.org/1999/xlink" width="1366" height="768" viewBox="0 0 1366 768"><defs><style>.cls-1{fill:#409eeb;}.cls-2{fill:#fff;}.cls-3{fill:#ffb315;}.cls-4{fill:#f7931e;}.cls-10,.cls-19,.cls-20,.cls-23,.cls-24,.cls-25,.cls-27,.cls-5{fill:none;}.cls-5{stroke:#78703b;}.cls-10,.cls-19,.cls-20,.cls-21,.cls-23,.cls-24,.cls-25,.cls-26,.cls-27,.cls-28,.cls-5,.cls-7,.cls-9{stroke-miterlimit:10;}.cls-26,.cls-5{stroke-width:0.25px;}.cls-6{fill:#edbcda;}.cls-17,.cls-18,.cls-7{fill:#dd6ba4;}.cls-10,.cls-7,.cls-9{stroke:#040405;}.cls-10,.cls-21,.cls-7,.cls-9{stroke-width:0.5px;}.cls-17,.cls-8{isolation:isolate;}.cls-12,.cls-9{fill:#94c6bf;}.cls-11{fill:#ff603f;}.cls-13{fill:#ff876a;}.cls-14{fill:#ffdc8a;}.cls-15{fill:#ff715f;}.cls-16{fill:#606060;}.cls-19{stroke:#606060;}.cls-20{stroke:#4d5453;}.cls-21,.cls-26,.cls-27,.cls-28{stroke:#000;}.cls-22{fill:#3d8968;}.cls-23,.cls-24,.cls-25{stroke:#d39b9f;stroke-width:2px;}.cls-24{stroke-dasharray:9.92 9.92;}.cls-25{stroke-dasharray:10.28 10.28;}.cls-29{fill:#3d3a3a;}.cls-30{fill:#b3b7b2;}.cls-31{fill:#597c57;}.cls-32{fill:#425e41;}.cls-33{fill:#999;}.cls-34{fill:#294427;}.cls-35{fill:#232d22;}.cls-36{fill:#669663;}</style></defs><g id="Kasser"><rect class="cls-1" width="1366" height="768"/><rect class="cls-2" x="390" width="13" height="249"/><rect class="cls-2" y="249" width="1366" height="12"/><rect class="cls-2" x="1023" width="16" height="248"/><rect class="cls-2" x="923" y="261" width="12" height="249"/><rect class="cls-2" x="313" y="261" width="12" height="249"/><rect class="cls-2" x="980" y="522" width="13" height="246"/><rect class="cls-2" y="510" width="1366" height="12"/><rect class="cls-2" x="390" y="522" width="13" height="246"/></g><g id="kasse1"><g id="pyramider"><polygon class="cls-3" points="381.55 413 325.48 510 437.62 510 381.55 413"/><polygon class="cls-4" points="504.05 358 398.48 510 609.62 510 504.05 358"/><polygon class="cls-3" points="603.05 439 551.48 510 654.62 510 603.05 439"/></g><g id="luftballon"><line id="Line_2" data-name="Line 2" class="cls-5" x1="789.69" y1="410.78" x2="778.07" y2="433.11"/><line id="Line_1" data-name="Line 1" class="cls-5" x1="760.24" y1="400.64" x2="748.61" y2="422.97"/><rect id="Rectangle_29" data-name="Rectangle 29" class="cls-6" x="738.69" y="432.15" width="24.24" height="43.04" transform="translate(1.69 910.12) rotate(-62.5)"/><path id="Path_6" data-name="Path 6" class="cls-6" d="M770.93,415l-41.07,14.19,53,27.59Z"/><path id="Path_2" data-name="Path 2" class="cls-6" d="M861.92,368.76a62,62,0,0,1-26.79,26.65h0l0,0-.21.1-2.49,1.2-.12,0-39.89,19.13-39.68-20.66-7.23-43.78,0-.08-.36-2.2c-.05-.25-.08-.48-.11-.72a62.28,62.28,0,1,1,116.95,20.29Z"/><path id="Path_3" data-name="Path 3" class="cls-6" d="M744.43,353.27l.36,2.2C744.65,354.74,744.53,354,744.43,353.27Z"/><path id="Path_4" data-name="Path 4" class="cls-6" d="M744.32,352.55c0,.24.06.48.11.72l-.12-.72Z"/><path id="Path_5" data-name="Path 5" class="cls-6" d="M834.48,399.49l-.06,0,.05,0Z"/><g id="Group_7" data-name="Group 7"><g id="Group_6" data-name="Group 6"><path id="Path_7" data-name="Path 7" class="cls-7" d="M867.51,375.85a61.93,61.93,0,0,1-26.78,26.65h0s0,0-.05,0l-.2.1-2.49,1.2-.12.05L798,423l-39.67-20.65-7.23-43.79,0-.08-.36-2.2a6,6,0,0,1-.11-.72,62.28,62.28,0,1,1,116.94,20.29Z"/><path id="Path_8" data-name="Path 8" class="cls-7" d="M750.68,356.28l.36,2.2C750.9,357.75,750.78,357,750.68,356.28Z"/><path id="Path_9" data-name="Path 9" class="cls-7" d="M750.57,355.56c0,.24.06.47.11.72l-.12-.73Z"/><path id="Path_10" data-name="Path 10" class="cls-7" d="M840.73,402.5l-.06,0s0,0,.05,0Z"/><image id="Rectangle_30" data-name="Rectangle 30" class="cls-8" width="690" height="702" transform="translate(785.77 263) rotate(27.5) scale(0.18)" xlink:href="Artboard%2011.png"/></g><path id="Path_11" data-name="Path 11" class="cls-9" d="M774.35,419.93l-41.07,14.19,53,27.59Z"/><rect id="Rectangle_31" data-name="Rectangle 31" class="cls-9" x="742.06" y="437.15" width="24.24" height="43.04" transform="translate(-0.94 915.8) rotate(-62.5)"/><line id="Line_3" data-name="Line 3" class="cls-10" x1="763.86" y1="405.24" x2="752.23" y2="427.57"/><line id="Line_4" data-name="Line 4" class="cls-10" x1="792.37" y1="420.09" x2="780.74" y2="442.42"/></g></g></g><g id="kasse2"><g id="sol_streg" data-name="sol/streg"><circle id="sol" class="cls-11" cx="1151.5" cy="466.5" r="112.5"/><rect id="hvid_streg" data-name="hvid streg" class="cls-2" x="1035" y="510" width="244" height="12"/></g><g id="fly"><path class="cls-2" d="M1043,383.4s9,17.16,42.53,17.16h142.41s32.2,1.49,33-28.36h-191S1058.67,371.46,1043,383.4Z"/><polygon class="cls-2" points="1132.54 405.78 1168.98 405.78 1172.84 461 1163.14 461 1132.54 405.78"/><polygon class="cls-2" points="1119.11 366.99 1121.35 360.26 1159.41 360.26 1156.65 366.99 1119.11 366.99"/><polygon class="cls-2" points="1160.63 356.53 1181.05 314 1172.09 314 1122.65 356.53 1160.63 356.53"/><path class="cls-2" d="M1215.9,367h31.59V339.11l-7.5.26S1235.09,363.27,1215.9,367Z"/><rect x="1049.72" y="379.66" width="5.97" height="3.26"/><rect x="1057.18" y="379.66" width="5.97" height="3.26"/><rect x="1064.64" y="379.66" width="5.97" height="3.26"/><circle cx="1102.7" cy="381.16" r="3.73"/><circle cx="1119.11" cy="381.16" r="3.73"/><circle cx="1135.53" cy="381.16" r="3.73"/><circle cx="1151.94" cy="381.16" r="3.73"/></g><path id="sky" class="cls-2" d="M843,342s-12.38,11.09,7.81,10.55,164.13-.42,166.16,0,17,1.43,14-8.06S1012,307,989,327c0,0,.63-6,11.82-13C1000.82,314,908,251,843,342Z"/></g><g id="kasse3"><g id="højhus1"><rect id="bygning" class="cls-6" x="1291" y="431" width="75" height="337"/><g id="vinduer"><rect x="1304" y="441" width="9" height="13" rx="3"/><rect x="1326" y="441" width="9" height="13" rx="3"/><rect x="1348" y="441" width="9" height="13" rx="3"/><rect x="1304" y="467" width="9" height="13" rx="3"/><rect x="1326" y="467" width="9" height="13" rx="3"/><rect x="1348" y="467" width="9" height="13" rx="3"/><rect x="1304" y="493" width="9" height="13" rx="3"/><rect x="1326" y="493" width="9" height="13" rx="3"/><rect x="1348" y="493" width="9" height="13" rx="3"/><rect x="1304" y="519" width="9" height="13" rx="3"/><rect x="1326" y="519" width="9" height="13" rx="3"/><rect x="1348" y="519" width="9" height="13" rx="3"/><rect x="1304" y="543" width="9" height="13" rx="3"/><rect x="1326" y="543" width="9" height="13" rx="3"/><rect x="1348" y="543" width="9" height="13" rx="3"/><rect x="1304" y="569" width="9" height="13" rx="3"/><rect x="1326" y="569" width="9" height="13" rx="3"/><rect x="1348" y="569" width="9" height="13" rx="3"/><rect x="1304" y="595" width="9" height="13" rx="3"/><rect x="1326" y="595" width="9" height="13" rx="3"/><rect x="1348" y="595" width="9" height="13" rx="3"/><rect x="1304" y="621" width="9" height="13" rx="3"/><rect x="1326" y="621" width="9" height="13" rx="3"/><rect x="1348" y="621" width="9" height="13" rx="3"/><rect x="1304" y="645" width="9" height="13" rx="3"/><rect x="1326" y="645" width="9" height="13" rx="3"/><rect x="1348" y="645" width="9" height="13" rx="3"/><rect x="1304" y="671" width="9" height="13" rx="3"/><rect x="1326" y="671" width="9" height="13" rx="3"/><rect x="1348" y="671" width="9" height="13" rx="3"/><rect x="1304" y="697" width="9" height="13" rx="3"/><rect x="1326" y="697" width="9" height="13" rx="3"/><rect x="1348" y="697" width="9" height="13" rx="3"/><rect x="1304" y="723" width="9" height="13" rx="3"/><rect x="1326" y="723" width="9" height="13" rx="3"/><rect x="1348" y="723" width="9" height="13" rx="3"/><rect x="1348" y="748" width="9" height="13" rx="3"/><rect x="1326" y="748" width="9" height="13" rx="3"/><rect x="1304" y="748" width="9" height="13" rx="3"/></g><rect id="hvid_streg-2" data-name="hvid streg" class="cls-2" x="1264" y="510" width="102" height="12"/><polygon id="skygge" points="1291 549.5 1247.49 601.5 1247.49 768 1291 768 1291 549.5"/></g><g id="hvidskygge"><rect class="cls-2" x="1023" y="704" width="27" height="64"/><polygon class="cls-2" points="1050 704 1050 670.76 1023.38 704.38 1050 704"/></g><g id="sortskygge"><rect x="1051" y="716.35" width="20" height="52.65" transform="translate(2122 1485.35) rotate(-180)"/><polygon points="1051 716.35 1051 689 1070.72 716.66 1051 716.35"/></g><g id="højhus2"><rect class="cls-12" x="1133" y="634" width="48" height="134"/><rect x="1141" y="643.33" width="6" height="8.67" rx="3"/><rect x="1154" y="643.33" width="6" height="8.67" rx="3"/><rect x="1167" y="643.33" width="6" height="8.67" rx="3"/><rect x="1141" y="657.33" width="6" height="8.67" rx="3"/><rect x="1154" y="657.33" width="6" height="8.67" rx="3"/><rect x="1167" y="657.33" width="6" height="8.67" rx="3"/><rect x="1141" y="671.33" width="6" height="8.67" rx="3"/><rect x="1154" y="671.33" width="6" height="8.67" rx="3"/><rect x="1167" y="671.33" width="6" height="8.67" rx="3"/><rect x="1141" y="685.33" width="6" height="8.67" rx="3"/><rect x="1154" y="685.33" width="6" height="8.67" rx="3"/><rect x="1167" y="685.33" width="6" height="8.67" rx="3"/><rect x="1141" y="698.33" width="6" height="8.67" rx="3"/><rect x="1154" y="698.33" width="6" height="8.67" rx="3"/><rect x="1167" y="698.33" width="6" height="8.67" rx="3"/><rect x="1141" y="711.33" width="6" height="8.67" rx="3"/><rect x="1154" y="711.33" width="6" height="8.67" rx="3"/><rect x="1167" y="711.33" width="6" height="8.67" rx="3"/><rect x="1141" y="724.33" width="6" height="8.67" rx="3"/><rect x="1154" y="724.33" width="6" height="8.67" rx="3"/><rect x="1167" y="724.33" width="6" height="8.67" rx="3"/><rect x="1141" y="737.33" width="6" height="8.67" rx="3"/><rect x="1154" y="737.33" width="6" height="8.67" rx="3"/><rect x="1167" y="737.33" width="6" height="8.67" rx="3"/><rect x="1141" y="750.33" width="6" height="8.67" rx="3"/><rect x="1154" y="750.33" width="6" height="8.67" rx="3"/><rect x="1167" y="750.33" width="6" height="8.67" rx="3"/><rect x="1181" y="662" width="15" height="106"/></g><rect id="højhus3" class="cls-13" x="1196" y="694" width="51" height="74"/><rect id="højhus4" class="cls-13" x="1071" y="731" width="62" height="37"/></g><g id="kasse4"><rect id="sand" class="cls-14" x="402.5" y="521.5" width="577" height="246"/><g id="håndklæde"><polygon id="håndklæde-2" data-name="håndklæde" class="cls-2" points="910.57 685.31 556.34 749.38 530 603.79 554.88 599.29 884.23 539.72 910.57 685.31"/><g id="sortstriber"><line x1="570.39" y1="746.84" x2="544.05" y2="601.25"/><line x1="897.09" y1="687.75" x2="870.75" y2="542.16"/></g><g id="striber"><rect class="cls-15" x="575.23" y="595.44" width="20" height="148" transform="translate(-109.81 114.85) rotate(-10.25)"/><rect class="cls-15" x="616.56" y="587.96" width="20" height="148" transform="translate(-107.82 122.09) rotate(-10.25)"/><rect class="cls-15" x="657.89" y="580.49" width="20" height="148" transform="translate(-105.83 129.33) rotate(-10.25)"/><rect class="cls-15" x="698.23" y="573.19" width="20" height="148" transform="translate(-103.88 136.39) rotate(-10.25)"/><rect class="cls-15" x="735.63" y="566.43" width="20" height="148" transform="translate(-102.08 142.94) rotate(-10.25)"/><rect class="cls-15" x="774.01" y="559.49" width="20" height="148" transform="translate(-100.23 149.66) rotate(-10.25)"/><rect class="cls-15" x="811.4" y="552.72" width="20" height="148" transform="translate(-98.43 156.21) rotate(-10.25)"/><rect class="cls-15" x="846.82" y="546.31" width="20" height="148" transform="translate(-96.73 162.41) rotate(-10.25)"/></g></g><g id="parasol"><rect class="cls-16" x="687.09" y="650.84" width="7.93" height="124.63" transform="translate(1564.25 1186.11) rotate(162.54)"/><path class="cls-17" d="M780.47,621.72A112.42,112.42,0,0,0,566,689.18"/><path class="cls-18" d="M606.43,676.46c3.3,10.49-3.08,21.85-14.25,25.36s-22.89-2.15-26.19-12.64"/><path class="cls-18" d="M665.26,658c3.3,10.49-3.08,21.84-14.25,25.36s-22.89-2.15-26.19-12.64"/><path class="cls-18" d="M722.87,639.84c3.3,10.49-3.08,21.84-14.25,25.36s-22.9-2.15-26.2-12.64"/><path class="cls-18" d="M780.47,621.72c3.3,10.49-3.08,21.85-14.25,25.36s-22.9-2.15-26.2-12.64"/><path class="cls-18" d="M607.13,684.67s-1.26-8.7,8.31-11c0,0,7.9-2.48,13.5,4.17l-3.53-11.21-21.81,6.86Z"/><path class="cls-18" d="M666,666.16s-1.26-8.7,8.31-11c0,0,7.9-2.48,13.5,4.17l-3.53-11.22-21.81,6.86Z"/><path class="cls-18" d="M723.56,648s-1.26-8.7,8.31-11c0,0,7.91-2.48,13.5,4.17L741.85,630,720,636.83Z"/><path class="cls-19" d="M639.5,548.21s-61.19,38.85-31.72,132.54"/><path class="cls-19" d="M742,638.54C712.52,544.85,640.11,548,640.11,548l33.73,107.24"/></g></g><g id="kasse5"><g id="pin"><polygon class="cls-12" points="257.5 602.09 206.89 496.18 308.11 496.18 257.5 602.09"/><circle class="cls-12" cx="257.5" cy="473.37" r="55.5"/><circle class="cls-20" cx="257.5" cy="473.37" r="28.4"/><rect id="hvidstreg" class="cls-2" x="192.2" y="510" width="120.8" height="12"/></g><g id="pariserhjul"><circle class="cls-13" cx="203.5" cy="645.5" r="63.5"/><circle class="cls-1" cx="203.5" cy="645" r="56"/><path d="M232.49,597l-45.29,74.9"/><path d="M174.2,597l45.29,74.9"/><line x1="147" y1="644.98" x2="253" y2="645"/><line x1="253" y1="618.79" x2="153.95" y2="671.11"/><line x1="153.95" y1="618.79" x2="253" y2="671.11"/></g><g id="house1"><rect class="cls-6" x="253" y="616" width="137" height="152"/><rect class="cls-3" x="257" y="609" width="133" height="7"/><rect class="cls-3" x="257" y="601" width="133" height="7"/><line class="cls-21" x1="257" y1="608.5" x2="390" y2="608.5"/><rect class="cls-14" x="276" y="634" width="18" height="32"/><rect class="cls-14" x="313" y="634" width="18" height="32"/><rect class="cls-14" x="353" y="634" width="18" height="32"/><rect class="cls-15" x="307" y="713" width="29" height="54"/></g><g id="house2"><rect class="cls-3" x="124" y="672" width="143" height="96"/><rect class="cls-14" x="146" y="719" width="20" height="49"/><rect class="cls-14" x="185" y="719" width="20" height="49"/><rect class="cls-14" x="224" y="719" width="20" height="49"/><circle class="cls-14" cx="156" cy="719" r="10"/><circle class="cls-14" cx="195" cy="719" r="10"/><circle class="cls-14" cx="234" cy="719" r="10"/></g><path id="bakke" class="cls-22" d="M0,612.5s14.42-3.53,36.71,21,45.38,2.62,68.33,11.06a77.24,77.24,0,0,1,35,26.56V768H0Z"/></g><g id="kasse6"><g id="regn"><line class="cls-23" x1="224.96" y1="262.19" x2="221.79" y2="266.05"/><line class="cls-24" x1="215.49" y1="273.72" x2="29.82" y2="499.8"/><line class="cls-23" x1="26.67" y1="503.64" x2="23.5" y2="507.5"/><line class="cls-23" x1="196.96" y1="264.19" x2="193.78" y2="268.05"/><line class="cls-25" x1="187.24" y1="275.98" x2="7.45" y2="494.17"/><line class="cls-23" x1="4.18" y1="498.14" x2="1" y2="502"/><line class="cls-23" x1="250.96" y1="264.19" x2="247.79" y2="268.05"/><line class="cls-24" x1="241.49" y1="275.72" x2="55.82" y2="501.8"/><line class="cls-23" x1="52.67" y1="505.64" x2="49.5" y2="509.5"/><line class="cls-23" x1="282.96" y1="264.19" x2="279.79" y2="268.05"/><line class="cls-24" x1="273.49" y1="275.72" x2="87.82" y2="501.8"/><line class="cls-23" x1="84.67" y1="505.64" x2="81.5" y2="509.5"/><line class="cls-23" x1="307.96" y1="264.19" x2="304.79" y2="268.05"/><line class="cls-24" x1="298.49" y1="275.72" x2="112.82" y2="501.8"/><line class="cls-23" x1="109.67" y1="505.64" x2="106.5" y2="509.5"/></g><g id="cykel"><g id="pariserhjul-2" data-name="pariserhjul"><ellipse class="cls-13" cx="65.83" cy="481.74" rx="26.83" ry="26.79"/><ellipse class="cls-1" cx="65.83" cy="481.53" rx="23.66" ry="23.63"/><path class="cls-26" d="M65.83,457.91v47.25"/><path class="cls-26" d="M78.08,461.3,53.51,501.87"/><path class="cls-26" d="M53.45,461.3,78,501.74"/><polyline class="cls-26" points="41.96 481.52 80.23 481.53 101 481.74"/><line class="cls-26" x1="86.75" y1="470.48" x2="44.9" y2="492.55"/><line class="cls-26" x1="44.9" y1="470.48" x2="86.75" y2="492.55"/></g><circle class="cls-27" cx="107.89" cy="479.91" r="6.99"/><g id="pariserhjul-3" data-name="pariserhjul"><circle class="cls-13" cx="161.34" cy="481.31" r="26.79"/><circle class="cls-1" cx="161.34" cy="481.1" r="23.63"/><path class="cls-26" d="M161.34,457.48v47.25"/><path class="cls-26" d="M173.57,460.87,149,501.44"/><path class="cls-26" d="M149.38,461.54l24.05,39.77"/><polyline class="cls-26" points="137.5 481.09 168.14 481.1 184.76 481.31"/><line class="cls-26" x1="182.22" y1="470.05" x2="140.44" y2="492.12"/><line class="cls-26" x1="140.44" y1="470.05" x2="182.22" y2="492.12"/></g><line class="cls-27" x1="149.82" y1="451.95" x2="114.87" y2="479.91"/><line class="cls-28" x1="134.55" y1="426.33" x2="152.57" y2="456.02"/><path class="cls-27" d="M126.52,424s7.51,4.66,15.4,0"/><line class="cls-27" x1="104.93" y1="473.58" x2="96.24" y2="433.32"/><line class="cls-27" x1="98.74" y1="444.91" x2="145.33" y2="444.91"/><line class="cls-27" x1="87.89" y1="433.32" x2="104.93" y2="433.32"/><line class="cls-27" x1="66" y1="481" x2="100" y2="452"/></g></g><g id="kasse7"><g id="baggrund"><path class="cls-29" d="M551.48,55.17s12.81-14.56,35.16-7.37,59.9,18.55,101.13,7.37S763.86,74.9,763.86,74.9L654.62,164Z"/><path class="cls-30" d="M682.42,119.52s90-65.27,158.31-59.89,92.73-16.87,128-10.75S1023,62.79,1023,62.79V187.17L691,194Z"/><path class="cls-31" d="M402.5,66S533.07,18.53,600,81.76s86.54,22.93,120.25,44.59S740,153.48,740,153.48L607.3,236.72l-204.8-7.91Z"/><path class="cls-32" d="M402.5,151.33s59.58-35.64,95-25,59.24-2.68,72.85,25S602.51,185,599.76,216.5,570.39,248,570.39,248L403,249Z"/><path class="cls-29" d="M834.42,126.35s-83.95,17.22-126.19,41.93S626.51,197,599.76,216.5,570.39,248,570.39,248h56.17s174.78-62,180.11-80S834.42,126.35,834.42,126.35Z"/><path class="cls-33" d="M626.56,248s10-31.53,61.21-40.27S787.45,129,848.73,124,963,118.05,993,140.52s30.38,29.23,30.38,29.23L1023,248Z"/><path class="cls-27" d="M448.53,187.17S484,192,485,216"/><path class="cls-27" d="M464.53,179.17S500,184,501,208"/></g><path class="cls-34" d="M771.38,0S654.15,50.35,658.1,155c0,0,4.92-82.73,163.3-155Z"/><path class="cls-34" d="M816.24,0S753.43,43.49,745,124c0,0,17.68-67.26,107.71-124Z"/><path class="cls-34" d="M873.12,0S803.47,37,803,113c0,0,34.4-83.92,108-113Z"/><path class="cls-35" d="M403,94.33s87.4-44.2,169.7,26.74c0,0-126.7-46.24-169.7-.16Z"/><path class="cls-35" d="M403,120.91s47.7-20.22,84.85,5.44c0,0-62.85-7.68-85.35,25Z"/><path class="cls-35" d="M1016.53,248s0-77.4-61.24-105.2c0,0,51.71,50.2,37.71,105.2Z"/><path class="cls-31" d="M973.24,248s22.33-61-12-84c0,0,41.71,5,37.71,84Z"/><path class="cls-35" d="M979.5,220.85S974,164.67,935,151.33c0,0,36.5,40.67,22.25,97.67l16-1Z"/><path class="cls-32" d="M870.74,223.79a46.17,46.17,0,0,0-36.32-21.13S838.19,237,869.59,249l14.64-.62Z"/><path class="cls-35" d="M875.41,248s-18-63,9.3-84c0,0-17,62,14.15,85Z"/><path class="cls-31" d="M929,224.32s-11.24-33.15-62.11-30.73c0,0,54.27,19.41,47.71,54.41"/><path class="cls-35" d="M950.73,214.09s-10.06-52.49-55.9-71.29c0,0,57.3,73.2,15.74,105.2l24.75,1Z"/><path class="cls-31" d="M957.25,249s6.88-48.65-46.68-69.83c0,0,37.07,57.83,24.75,69.83Z"/><path class="cls-35" d="M766.78,249V154.21s-5.66-25.86,15.27-27.21h11v15.14H781.38s-4.38-.78-4,9.92,0,96.94,0,96.94Z"/><ellipse class="cls-32" cx="792.5" cy="133.79" rx="2.5" ry="9.79"/><path d="M848.43,214.09s9.54,17,25.06,25.93"/><path class="cls-32" d="M597.06,25.54a46.19,46.19,0,0,0,36.32,21.13S629.62,12.34,598.21.34L583.57,1Z"/><path d="M619.37,35.25s-9.54-17-25-25.94"/><path class="cls-36" d="M617.17,16.64a32.85,32.85,0,0,0,25.83,15S640.32,7.25,618-1.28l-10.41.44Z"/><path d="M633,23.55S626.25,11.49,615.22,5.1"/></g></svg>