<svg xmlns="http://www.w3.org/2000/svg" xmlns:xlink="http://www.w3.org/1999/xlink" width="1366" height="767" viewBox="0 0 1366 767"><defs><style>.cls-1,.cls-11,.cls-20,.cls-21,.cls-25,.cls-26,.cls-27,.cls-30,.cls-6{fill:none;}.cls-2{fill:#fff;}.cls-3{fill:#f3f4e6;}.cls-4{fill:#ffb315;}.cls-5{fill:#f7931e;}.cls-6{stroke:#78703b;}.cls-10,.cls-11,.cls-20,.cls-21,.cls-22,.cls-25,.cls-26,.cls-27,.cls-29,.cls-30,.cls-31,.cls-39,.cls-6,.cls-8{stroke-miterlimit:10;}.cls-29,.cls-6{stroke-width:0.25px;}.cls-7{fill:#edbcda;}.cls-8{fill:#dd6ba4;}.cls-10,.cls-11,.cls-8{stroke:#040405;}.cls-10,.cls-11,.cls-22,.cls-39,.cls-8{stroke-width:0.5px;}.cls-9{isolation:isolate;}.cls-10,.cls-13{fill:#94c6bf;}.cls-12{fill:#ff603f;}.cls-14{fill:#ff876a;}.cls-15{fill:url(#prikker);}.cls-16{fill:#ffdc8a;}.cls-17{fill:#ff715f;}.cls-18{fill:#606060;}.cls-19{fill:#ade0b1;}.cls-20{stroke:#606060;}.cls-21{stroke:#fff;}.cls-22,.cls-29,.cls-30,.cls-31{stroke:#000;}.cls-23{fill:#3d8968;}.cls-24{fill:url(#prikker-9);}.cls-25,.cls-26,.cls-27{stroke:#d39b9f;stroke-width:2px;}.cls-26{stroke-dasharray:9.92 9.92;}.cls-27{stroke-dasharray:10.28 10.28;}.cls-28{fill:#e0775f;}.cls-32{fill:#3d3a3a;}.cls-33{fill:#b6d3b4;}.cls-34{fill:#fffcbb;}.cls-35{fill:#294427;}.cls-36{fill:#232d22;}.cls-37{fill:#597c57;}.cls-38{fill:#425e41;}.cls-39{stroke:#020202;}.cls-40{fill:url(#prikker-25);}.cls-41{fill:#7ac7e2;}.cls-42{fill:#8fcbe5;}.cls-43{fill:#a9d5ed;}.cls-44{fill:#bddbef;}</style><pattern id="prikker" data-name="prikker" width="2" height="2" patternUnits="userSpaceOnUse" viewBox="0 0 2 2"><rect class="cls-1" width="2" height="2"/><circle class="cls-2" cx="1" cy="1" r="0.5"/></pattern><pattern id="prikker-9" data-name="prikker" width="2" height="2" patternTransform="translate(-3.69 -10.06) scale(1.53 1.51)" patternUnits="userSpaceOnUse" viewBox="0 0 2 2"><rect class="cls-1" width="2" height="2"/><circle class="cls-2" cx="1" cy="1" r="0.5"/></pattern><pattern id="prikker-25" data-name="prikker" width="2" height="2" patternTransform="translate(0.63 -3.49) scale(1.24)" patternUnits="userSpaceOnUse" viewBox="0 0 2 2"><rect class="cls-1" width="2" height="2"/><circle class="cls-2" cx="1" cy="1" r="0.5"/></pattern></defs><g id="Kasser"><rect class="cls-3" width="1366" height="768"/><rect class="cls-2" x="390" width="13" height="249"/><rect class="cls-2" y="249" width="1366" height="12"/><rect class="cls-2" x="1023" width="16" height="249"/><rect class="cls-2" x="923" y="261" width="12" height="249"/><rect class="cls-2" x="313" y="261" width="12" height="249"/><rect class="cls-2" x="980" y="522" width="13" height="246"/><rect class="cls-2" y="510" width="1366" height="12"/><rect class="cls-2" x="390" y="522" width="13" height="246"/></g><g id="kasse1"><g id="pyramider"><polygon class="cls-4" points="381.55 413 325.48 510 437.62 510 381.55 413"/><polygon class="cls-5" points="504.05 358 398.48 510 609.62 510 504.05 358"/><polygon class="cls-4" points="603.05 439 551.48 510 654.62 510 603.05 439"/></g><g id="luftballon"><line id="Line_2" data-name="Line 2" class="cls-6" x1="703.69" y1="409.78" x2="692.07" y2="432.11"/><line id="Line_1" data-name="Line 1" class="cls-6" x1="674.24" y1="399.64" x2="662.61" y2="421.97"/><rect id="Rectangle_29" data-name="Rectangle 29" class="cls-7" x="652.69" y="431.15" width="24.24" height="43.04" transform="translate(-43.71 833.3) rotate(-62.5)"/><path id="Path_6" data-name="Path 6" class="cls-7" d="M684.93,414l-41.07,14.19,53,27.59Z"/><path id="Path_2" data-name="Path 2" class="cls-7" d="M775.92,367.76a62,62,0,0,1-26.79,26.65h0l0,0-.21.1-2.49,1.2-.12,0-39.89,19.13-39.68-20.66-7.23-43.78,0-.08-.36-2.2c-.05-.25-.08-.48-.11-.72a62.28,62.28,0,1,1,116.95,20.29Z"/><path id="Path_3" data-name="Path 3" class="cls-7" d="M658.43,352.27l.36,2.2C658.65,353.74,658.53,353,658.43,352.27Z"/><path id="Path_4" data-name="Path 4" class="cls-7" d="M658.32,351.55c0,.24.06.48.11.72l-.12-.72Z"/><path id="Path_5" data-name="Path 5" class="cls-7" d="M748.48,398.49l-.06,0,.05,0Z"/><g id="Group_7" data-name="Group 7"><g id="Group_6" data-name="Group 6"><path id="Path_7" data-name="Path 7" class="cls-8" d="M781.51,374.85a61.93,61.93,0,0,1-26.78,26.65h0s0,0-.05,0l-.2.1-2.49,1.2-.12.05L712,422l-39.67-20.65-7.23-43.79,0-.08-.36-2.2a6,6,0,0,1-.11-.72,62.28,62.28,0,1,1,116.94,20.29Z"/><path id="Path_8" data-name="Path 8" class="cls-8" d="M664.68,355.28l.36,2.2C664.9,356.75,664.78,356,664.68,355.28Z"/><path id="Path_9" data-name="Path 9" class="cls-8" d="M664.57,354.56c0,.24.06.47.11.72l-.12-.73Z"/><path id="Path_10" data-name="Path 10" class="cls-8" d="M754.73,401.5l-.06,0s0,0,.05,0Z"/><image id="Rectangle_30" data-name="Rectangle 30" class="cls-9" width="690" height="702" transform="translate(699.77 262) rotate(27.5) scale(0.18)" xlink:href="Artboard%2011.png"/></g><path id="Path_11" data-name="Path 11" class="cls-10" d="M688.35,418.93l-41.07,14.19,53,27.59Z"/><rect id="Rectangle_31" data-name="Rectangle 31" class="cls-10" x="656.06" y="436.15" width="24.24" height="43.04" transform="translate(-46.33 838.98) rotate(-62.5)"/><line id="Line_3" data-name="Line 3" class="cls-11" x1="677.86" y1="404.24" x2="666.23" y2="426.57"/><line id="Line_4" data-name="Line 4" class="cls-11" x1="706.37" y1="419.09" x2="694.74" y2="441.42"/></g></g></g><g id="kasse2"><g id="sol_streg" data-name="sol/streg"><circle id="sol" class="cls-12" cx="1151.5" cy="466.5" r="112.5"/><rect id="hvid_streg" data-name="hvid streg" class="cls-2" x="1035" y="510" width="244" height="12"/></g><g id="fly"><path class="cls-2" d="M1043,383.4s9,17.16,42.53,17.16h142.41s32.2,1.49,33-28.36h-191S1058.67,371.46,1043,383.4Z"/><polygon class="cls-2" points="1132.54 405.78 1168.98 405.78 1172.84 461 1163.14 461 1132.54 405.78"/><polygon class="cls-2" points="1119.11 366.99 1121.35 360.26 1159.41 360.26 1156.65 366.99 1119.11 366.99"/><polygon class="cls-2" points="1160.63 356.53 1181.05 314 1172.09 314 1122.65 356.53 1160.63 356.53"/><path class="cls-2" d="M1215.9,367h31.59V339.11l-7.5.26S1235.09,363.27,1215.9,367Z"/><rect x="1049.72" y="379.66" width="5.97" height="3.26"/><rect x="1057.18" y="379.66" width="5.97" height="3.26"/><rect x="1064.64" y="379.66" width="5.97" height="3.26"/><circle cx="1102.7" cy="381.16" r="3.73"/><circle cx="1119.11" cy="381.16" r="3.73"/><circle cx="1135.53" cy="381.16" r="3.73"/><circle cx="1151.94" cy="381.16" r="3.73"/></g><path id="sky" class="cls-2" d="M843,342s-12.38,11.09,7.81,10.55,164.13-.42,166.16,0,17,1.43,14-8.06S1012,307,989,327c0,0,.63-6,11.82-13C1000.82,314,908,251,843,342Z"/></g><g id="kasse3"><g id="højhus1"><rect id="bygning" class="cls-7" x="1291" y="431" width="75" height="337"/><g id="vinduer"><rect x="1304" y="441" width="9" height="13" rx="3"/><rect x="1326" y="441" width="9" height="13" rx="3"/><rect x="1348" y="441" width="9" height="13" rx="3"/><rect x="1304" y="467" width="9" height="13" rx="3"/><rect x="1326" y="467" width="9" height="13" rx="3"/><rect x="1348" y="467" width="9" height="13" rx="3"/><rect x="1304" y="493" width="9" height="13" rx="3"/><rect x="1326" y="493" width="9" height="13" rx="3"/><rect x="1348" y="493" width="9" height="13" rx="3"/><rect x="1304" y="519" width="9" height="13" rx="3"/><rect x="1326" y="519" width="9" height="13" rx="3"/><rect x="1348" y="519" width="9" height="13" rx="3"/><rect x="1304" y="543" width="9" height="13" rx="3"/><rect x="1326" y="543" width="9" height="13" rx="3"/><rect x="1348" y="543" width="9" height="13" rx="3"/><rect x="1304" y="569" width="9" height="13" rx="3"/><rect x="1326" y="569" width="9" height="13" rx="3"/><rect x="1348" y="569" width="9" height="13" rx="3"/><rect x="1304" y="595" width="9" height="13" rx="3"/><rect x="1326" y="595" width="9" height="13" rx="3"/><rect x="1348" y="595" width="9" height="13" rx="3"/><rect x="1304" y="621" width="9" height="13" rx="3"/><rect x="1326" y="621" width="9" height="13" rx="3"/><rect x="1348" y="621" width="9" height="13" rx="3"/><rect x="1304" y="645" width="9" height="13" rx="3"/><rect x="1326" y="645" width="9" height="13" rx="3"/><rect x="1348" y="645" width="9" height="13" rx="3"/><rect x="1304" y="671" width="9" height="13" rx="3"/><rect x="1326" y="671" width="9" height="13" rx="3"/><rect x="1348" y="671" width="9" height="13" rx="3"/><rect x="1304" y="697" width="9" height="13" rx="3"/><rect x="1326" y="697" width="9" height="13" rx="3"/><rect x="1348" y="697" width="9" height="13" rx="3"/><rect x="1304" y="723" width="9" height="13" rx="3"/><rect x="1326" y="723" width="9" height="13" rx="3"/><rect x="1348" y="723" width="9" height="13" rx="3"/><rect x="1348" y="748" width="9" height="13" rx="3"/><rect x="1326" y="748" width="9" height="13" rx="3"/><rect x="1304" y="748" width="9" height="13" rx="3"/></g><rect id="hvid_streg-2" data-name="hvid streg" class="cls-2" x="1264" y="510" width="102" height="12"/><polygon id="skygge" points="1291 549.5 1247.49 601.5 1247.49 768 1291 768 1291 549.5"/></g><g id="hvidskygge"><rect class="cls-2" x="1023" y="704" width="27" height="64"/><polygon class="cls-2" points="1050 704 1050 670.76 1023.38 704.38 1050 704"/></g><g id="sortskygge"><rect x="1051" y="716.35" width="20" height="52.65" transform="translate(2122 1485.35) rotate(-180)"/><polygon points="1051 716.35 1051 689 1070.72 716.66 1051 716.35"/></g><g id="højhus2"><rect class="cls-13" x="1133" y="634" width="48" height="134"/><rect x="1141" y="643.33" width="6" height="8.67" rx="3"/><rect x="1154" y="643.33" width="6" height="8.67" rx="3"/><rect x="1167" y="643.33" width="6" height="8.67" rx="3"/><rect x="1141" y="657.33" width="6" height="8.67" rx="3"/><rect x="1154" y="657.33" width="6" height="8.67" rx="3"/><rect x="1167" y="657.33" width="6" height="8.67" rx="3"/><rect x="1141" y="671.33" width="6" height="8.67" rx="3"/><rect x="1154" y="671.33" width="6" height="8.67" rx="3"/><rect x="1167" y="671.33" width="6" height="8.67" rx="3"/><rect x="1141" y="685.33" width="6" height="8.67" rx="3"/><rect x="1154" y="685.33" width="6" height="8.67" rx="3"/><rect x="1167" y="685.33" width="6" height="8.67" rx="3"/><rect x="1141" y="698.33" width="6" height="8.67" rx="3"/><rect x="1154" y="698.33" width="6" height="8.67" rx="3"/><rect x="1167" y="698.33" width="6" height="8.67" rx="3"/><rect x="1141" y="711.33" width="6" height="8.67" rx="3"/><rect x="1154" y="711.33" width="6" height="8.67" rx="3"/><rect x="1167" y="711.33" width="6" height="8.67" rx="3"/><rect x="1141" y="724.33" width="6" height="8.67" rx="3"/><rect x="1154" y="724.33" width="6" height="8.67" rx="3"/><rect x="1167" y="724.33" width="6" height="8.67" rx="3"/><rect x="1141" y="737.33" width="6" height="8.67" rx="3"/><rect x="1154" y="737.33" width="6" height="8.67" rx="3"/><rect x="1167" y="737.33" width="6" height="8.67" rx="3"/><rect x="1141" y="750.33" width="6" height="8.67" rx="3"/><rect x="1154" y="750.33" width="6" height="8.67" rx="3"/><rect x="1167" y="750.33" width="6" height="8.67" rx="3"/><rect x="1181" y="662" width="15" height="106"/></g><rect id="højhus3" class="cls-14" x="1196" y="694" width="51" height="74"/><rect id="højhus4" class="cls-14" x="1071" y="731" width="62" height="37"/><polygon class="cls-15" points="1291 549.5 1282.4 559.77 1282.4 767 1291 767 1291 549.5"/><polygon class="cls-15" points="1051 689 1056.63 696.9 1057.66 769 1051 769 1051 689"/><rect class="cls-15" x="1181" y="662" width="5.07" height="106"/></g><g id="kasse4"><polygon class="cls-16" points="884.92 522 404 601.63 404 768 980.5 767.5 981 522 884.92 522"/><g id="håndklæde"><polygon id="håndklæde-2" data-name="håndklæde" class="cls-2" points="910.57 685.31 556.34 749.38 530 603.79 554.88 599.29 884.23 539.72 910.57 685.31"/><g id="sortstriber"><line x1="570.39" y1="746.84" x2="544.05" y2="601.25"/><line x1="897.09" y1="687.75" x2="870.75" y2="542.16"/></g><g id="striber"><rect class="cls-17" x="575.23" y="595.44" width="20" height="148" transform="translate(-109.81 114.85) rotate(-10.25)"/><rect class="cls-17" x="616.56" y="587.96" width="20" height="148" transform="translate(-107.82 122.09) rotate(-10.25)"/><rect class="cls-17" x="657.89" y="580.49" width="20" height="148" transform="translate(-105.83 129.33) rotate(-10.25)"/><rect class="cls-17" x="698.23" y="573.19" width="20" height="148" transform="translate(-103.88 136.39) rotate(-10.25)"/><rect class="cls-17" x="735.63" y="566.43" width="20" height="148" transform="translate(-102.08 142.94) rotate(-10.25)"/><rect class="cls-17" x="774.01" y="559.49" width="20" height="148" transform="translate(-100.23 149.66) rotate(-10.25)"/><rect class="cls-17" x="811.4" y="552.72" width="20" height="148" transform="translate(-98.43 156.21) rotate(-10.25)"/><rect class="cls-17" x="846.82" y="546.31" width="20" height="148" transform="translate(-96.73 162.41) rotate(-10.25)"/></g></g><g id="parasol"><path class="cls-18" d="M713.54,771.41,706,773.79,669.38,657.45a10.84,10.84,0,0,1,3.11-1.77h0a13.82,13.82,0,0,1,1.33-.44l.26-.06.18,0,.07,0a12.62,12.62,0,0,1,2.5-.4Z"/><path class="cls-19" d="M780.47,621.72A112.4,112.4,0,0,0,640.13,548h0l-.61.19a112.42,112.42,0,0,0-73.51,141c3.3,10.49,15,16.15,26.19,12.64a21.28,21.28,0,0,0,15-17.15,10.2,10.2,0,0,1,.16-3.16,11.8,11.8,0,0,1,.33-1.26,9.58,9.58,0,0,1,6-6,13.8,13.8,0,0,1,1.78-.55l.06,0,.07,0,.07,0a13.14,13.14,0,0,1,13.08,3.9l.28.3a21.77,21.77,0,0,0,37-11.63,10.2,10.2,0,0,1,.16-3.16,9.36,9.36,0,0,1,3.26-5.55,10.84,10.84,0,0,1,3.11-1.77h0a13.82,13.82,0,0,1,1.33-.44l.26-.06.18,0,.07,0a12.62,12.62,0,0,1,2.5-.4,13.26,13.26,0,0,1,7.16,1.48c4.59,8.11,14.82,12.09,24.62,9,9.41-3,15.42-11.48,15.11-20.37a9.54,9.54,0,0,1,6.31-7.25h0a12.87,12.87,0,0,1,1.72-.54l.07,0,.26-.07a13.66,13.66,0,0,1,9.47,1.13c4.59,8.11,14.82,12.09,24.62,9C777.39,643.57,783.77,632.21,780.47,621.72Zm-38.4,12.08.89-.29h0Z"/><path class="cls-19" d="M615.38,673.65l-1.78.55A13.8,13.8,0,0,1,615.38,673.65Z"/><path class="cls-19" d="M674.09,655.18l-.25.08-1.34.42a13.82,13.82,0,0,1,1.33-.44Z"/><path class="cls-19" d="M731.8,637l-1.72.54A12.87,12.87,0,0,1,731.8,637Z"/><polygon class="cls-19" points="742.97 633.52 742.07 633.8 742.96 633.51 742.97 633.52"/><path class="cls-7" d="M607.29,681.51a19.57,19.57,0,0,1-.16,3.16A10.2,10.2,0,0,1,607.29,681.51Z"/><path class="cls-7" d="M666.12,663a19.51,19.51,0,0,1-.16,3.16A10.2,10.2,0,0,1,666.12,663Z"/><polygon class="cls-7" points="742.97 633.52 742.07 633.8 742.96 633.51 742.97 633.52"/><polygon class="cls-7" points="742.97 633.52 742.07 633.8 742.96 633.51 742.97 633.52"/><path class="cls-20" d="M607.78,680.75c0-.17-.1-.33-.16-.5"/><path class="cls-21" d="M615.38,673.65C588.76,586.3,639.5,548.21,639.5,548.21l34.34,107v0"/><path class="cls-21" d="M639.5,548.21s64.26,2.17,92.63,88.73"/><path class="cls-20" d="M742,638.54c0-.1-.06-.2-.1-.3"/></g><path id="skygge-2" data-name="skygge" class="cls-15" d="M639.5,548.21s-26,18.14-39.74,43S576.67,634,581.34,662s10.84,39.82,10.84,39.82-17.62,4.75-24.9-9.54S561,648.12,561,648.12s4-41.09,23-61.11S620,554.42,639.5,548.21Z"/></g><g id="kasse5"><g id="pin"><polygon class="cls-13" points="257.5 602.09 206.89 496.18 308.11 496.18 257.5 602.09"/><circle class="cls-13" cx="257.5" cy="473.37" r="55.5"/><circle class="cls-21" cx="257.5" cy="473.37" r="28.4"/><rect id="hvidstreg" class="cls-2" x="192.2" y="510" width="120.8" height="12"/></g><g id="pariserhjul"><circle class="cls-19" cx="203.5" cy="645.5" r="63.5"/><circle class="cls-3" cx="203.5" cy="645" r="56"/><path d="M232.49,597l-45.29,74.9"/><path d="M174.2,597l45.29,74.9"/><line x1="147" y1="644.98" x2="253" y2="645"/><line x1="253" y1="618.79" x2="153.95" y2="671.11"/><line x1="153.95" y1="618.79" x2="253" y2="671.11"/></g><g id="house1"><rect class="cls-7" x="253" y="616" width="137" height="152"/><rect class="cls-4" x="257" y="609" width="133" height="7"/><rect class="cls-4" x="257" y="601" width="133" height="7"/><line class="cls-22" x1="257" y1="608.5" x2="390" y2="608.5"/><rect class="cls-16" x="276" y="634" width="18" height="32"/><rect class="cls-16" x="313" y="634" width="18" height="32"/><rect class="cls-16" x="353" y="634" width="18" height="32"/><rect class="cls-17" x="307" y="713" width="29" height="54"/></g><g id="house2"><rect class="cls-4" x="124" y="672" width="143" height="96"/><rect class="cls-16" x="146" y="719" width="20" height="49"/><rect class="cls-16" x="185" y="719" width="20" height="49"/><rect class="cls-16" x="224" y="719" width="20" height="49"/><circle class="cls-16" cx="156" cy="719" r="10"/><circle class="cls-16" cx="195" cy="719" r="10"/><circle class="cls-16" cx="234" cy="719" r="10"/></g><path id="bakke" class="cls-23" d="M0,612.5s14.42-3.53,36.71,21,45.38,2.62,68.33,11.06a77.24,77.24,0,0,1,35,26.56V768H0Z"/><g id="skygge-3" data-name="skygge"><polygon class="cls-24" points="284.27 522 257.5 602.09 295.77 522 284.27 522"/><path class="cls-24" d="M289.57,510S301,493.16,302,481.08s0-23.46-8-33.27S284,433,267,427s-36.1-2.33-36.1-2.33,26-14.56,51.07-1.1,29.19,35.6,29.19,35.6,4.07,20.2-3.05,37L301.51,510Z"/><polygon class="cls-15" points="140 681.39 267 681.39 267 672 140 671.12 140 681.39"/><polygon class="cls-15" points="257.5 608.5 257.5 616 390 616 390 609 257.5 608.5"/><path class="cls-15" d="M20,618.79S33,640,39,644.5,59,651,70,650s17.82-4,26.41-4.5S117,650.25,117,650.25s-10.6-6.69-22.79-8c0,0-13.23.88-20.71,2.3s-13,2.33-18.22.37-8.84-2-18.55-11.46S22.94,620.58,20,618.79Z"/></g><polygon class="cls-24" points="504.05 358 557.22 499.5 581.87 470.05 504.05 358"/><polygon class="cls-24" points="603.05 439 628.94 510 654.62 510 603.05 439"/><path class="cls-24" d="M381.55,413c.45,0,22.65,88.77,22.65,88.77l15.13-23.41Z"/></g><g id="kasse6"><g id="regn"><line class="cls-25" x1="224.96" y1="262.19" x2="221.79" y2="266.05"/><line class="cls-26" x1="215.49" y1="273.72" x2="29.82" y2="499.8"/><line class="cls-25" x1="26.67" y1="503.64" x2="23.5" y2="507.5"/><line class="cls-25" x1="196.96" y1="264.19" x2="193.78" y2="268.05"/><line class="cls-27" x1="187.24" y1="275.98" x2="7.45" y2="494.17"/><line class="cls-25" x1="4.18" y1="498.14" x2="1" y2="502"/><line class="cls-25" x1="250.96" y1="264.19" x2="247.79" y2="268.05"/><line class="cls-26" x1="241.49" y1="275.72" x2="55.82" y2="501.8"/><line class="cls-25" x1="52.67" y1="505.64" x2="49.5" y2="509.5"/><line class="cls-25" x1="282.96" y1="264.19" x2="279.79" y2="268.05"/><line class="cls-26" x1="273.49" y1="275.72" x2="87.82" y2="501.8"/><line class="cls-25" x1="84.67" y1="505.64" x2="81.5" y2="509.5"/><line class="cls-25" x1="307.96" y1="264.19" x2="304.79" y2="268.05"/><line class="cls-26" x1="298.49" y1="275.72" x2="112.82" y2="501.8"/><line class="cls-25" x1="109.67" y1="505.64" x2="106.5" y2="509.5"/></g><g id="cykel"><g id="pariserhjul-2" data-name="pariserhjul"><ellipse class="cls-28" cx="65.83" cy="481.74" rx="26.83" ry="26.79"/><ellipse class="cls-3" cx="65.83" cy="481.53" rx="23.66" ry="23.63"/><path class="cls-29" d="M65.83,457.91v47.25"/><path class="cls-29" d="M78.08,461.3,53.51,501.87"/><path class="cls-29" d="M53.45,461.3,78,501.74"/><polyline class="cls-29" points="41.96 481.52 80.23 481.53 101 481.74"/><line class="cls-29" x1="86.75" y1="470.48" x2="44.9" y2="492.55"/><line class="cls-29" x1="44.9" y1="470.48" x2="86.75" y2="492.55"/></g><circle class="cls-30" cx="107.89" cy="479.91" r="6.99"/><g id="pariserhjul-3" data-name="pariserhjul"><circle class="cls-28" cx="161.34" cy="481.31" r="26.79"/><circle class="cls-3" cx="161.34" cy="481.1" r="23.63"/><path class="cls-29" d="M161.34,457.48v47.25"/><path class="cls-29" d="M173.57,460.87,149,501.44"/><path class="cls-29" d="M149.38,461.54l24.05,39.77"/><polyline class="cls-29" points="137.5 481.09 168.14 481.1 184.76 481.31"/><line class="cls-29" x1="182.22" y1="470.05" x2="140.44" y2="492.12"/><line class="cls-29" x1="140.44" y1="470.05" x2="182.22" y2="492.12"/></g><line class="cls-30" x1="149.82" y1="451.95" x2="114.87" y2="479.91"/><line class="cls-31" x1="134.55" y1="426.33" x2="152.57" y2="456.02"/><path class="cls-30" d="M126.52,424s7.51,4.66,15.4,0"/><line class="cls-30" x1="104.93" y1="473.58" x2="96.24" y2="433.32"/><line class="cls-30" x1="98.74" y1="444.91" x2="145.33" y2="444.91"/><line class="cls-30" x1="87.89" y1="433.32" x2="104.93" y2="433.32"/><line class="cls-30" x1="66" y1="481" x2="100" y2="452"/></g></g><g id="kasse7"><g id="baggrund"><path class="cls-32" d="M551.48,55.17s12.81-14.56,35.16-7.37,59.9,18.55,101.13,7.37S763.86,74.9,763.86,74.9L654.62,164Z"/><path class="cls-13" d="M682.42,119.52s90-65.27,158.31-59.89,92.73-16.87,128-10.75S1023,62.79,1023,62.79V187.17L691,194Z"/><path class="cls-33" d="M402.5,66S533.07,18.53,600,81.76s86.54,22.93,120.25,44.59S740,153.48,740,153.48L607.3,236.72l-204.8-7.91Z"/><path class="cls-34" d="M402.5,151.33s59.58-35.64,95-25,59.24-2.68,72.85,25S602.51,185,599.76,216.5,570.39,248,570.39,248L403,249Z"/><path class="cls-32" d="M834.42,126.35s-83.95,17.22-126.19,41.93S626.51,197,599.76,216.5,570.39,248,570.39,248h56.17s174.78-62,180.11-80S834.42,126.35,834.42,126.35Z"/><path class="cls-28" d="M626.56,248s10-31.53,61.21-40.27S787.45,129,848.73,124,963,118.05,993,140.52s30.38,29.23,30.38,29.23L1023,248Z"/><path class="cls-30" d="M448.53,187.17S484,192,485,216"/><path class="cls-30" d="M464.53,179.17S500,184,501,208"/></g><path class="cls-35" d="M771.38,0S654.15,50.35,658.1,155c0,0,4.92-82.73,163.3-155Z"/><path class="cls-35" d="M816.24,0S753.43,43.49,745,124c0,0,17.68-67.26,107.71-124Z"/><path class="cls-35" d="M873.12,0S803.47,37,803,113c0,0,34.4-83.92,108-113Z"/><path class="cls-36" d="M403,94.33s87.4-44.2,169.7,26.74c0,0-126.7-46.24-169.7-.16Z"/><path class="cls-36" d="M403,120.91s47.7-20.22,84.85,5.44c0,0-62.85-7.68-85.35,25Z"/><path class="cls-36" d="M1016.53,248s0-77.4-61.24-105.2c0,0,51.71,50.2,37.71,105.2Z"/><path class="cls-37" d="M973.24,248s22.33-61-12-84c0,0,41.71,5,37.71,84Z"/><path class="cls-36" d="M979.5,220.85S974,164.67,935,151.33c0,0,36.5,40.67,22.25,97.67l16-1Z"/><path class="cls-38" d="M870.74,223.79a46.17,46.17,0,0,0-36.32-21.13S838.19,237,869.59,249l14.64-.62Z"/><path class="cls-36" d="M875.41,248s-18-63,9.3-84c0,0-17,62,14.15,85Z"/><path class="cls-37" d="M929,224.32s-11.24-33.15-62.11-30.73c0,0,54.27,19.41,47.71,54.41"/><path class="cls-36" d="M950.73,214.09s-10.06-52.49-55.9-71.29c0,0,57.3,73.2,15.74,105.2l24.75,1Z"/><path class="cls-33" d="M957.25,249s6.88-48.65-46.68-69.83c0,0,37.07,57.83,24.75,69.83Z"/><path class="cls-38" d="M766.78,249V154.21s-5.66-25.86,15.27-27.21h11v15.14H781.38s-4.38-.78-4,9.92,0,96.94,0,96.94Z"/><ellipse class="cls-35" cx="792.5" cy="133.79" rx="2.5" ry="9.79"/><path d="M848.43,214.09s9.54,17,25.06,25.93"/><path class="cls-28" d="M597.06,25.54a46.19,46.19,0,0,0,36.32,21.13S629.62,12.34,598.21.34L583.57,1Z"/><path class="cls-28" d="M427.62,184a46.15,46.15,0,0,0,23.89-34.56s-34.52,1.08-48.93,31.46l-.52,14.64Z"/><path d="M437.66,163.7S420.07,172,410,186.86"/><path d="M614.42,33.1s-8.31-17.59-23.16-27.64"/><path class="cls-13" d="M617.17,16.64a32.85,32.85,0,0,0,25.83,15S640.32,7.25,618-1.28l-10.41.44Z"/><path d="M633,23.55S626.25,11.49,615.22,5.1"/><path class="cls-13" d="M421,201.36a32.82,32.82,0,0,0,16-25.22s-24.51,1.72-33.92,23.71l0,10.41Z"/><path d="M431.22,184.89s-13.34,3.69-22.19,12.87"/><path class="cls-37" d="M1022,161.37s-14.59,3.34-32.34-33.16a33.79,33.79,0,0,0-21.33-17.11c-15.75-4.36-19-21.39-15.57-27.54s19.86-2.42,28.09,9,35.42,16.8,41.15,24.1Z"/><path class="cls-39" d="M970,98s50,38.75,52,40.38"/><g id="skygger"><path class="cls-40" d="M592.85,75.59s3.72,29.69,32.44,42.55,54.22,1.49,54.22,1.49S639.7,124.18,592.85,75.59Z"/><path class="cls-15" d="M840.73,59.63s42.84,17.83,82-6.9c0,0-24.66,6-43.22,7.12A349.32,349.32,0,0,1,840.73,59.63Z"/><path class="cls-15" d="M657.35,217.33s34,9.33,63.32-5,25-24.48,43.19-47.4l-37.59,26.52s-17.73,13-38.5,16.28S657.35,217.33,657.35,217.33Z"/></g></g><g id="kasse8"><polygon class="cls-13" points="1039 179.17 1102.69 62 1189.57 248 1039 248 1039 179.17"/><polygon class="cls-33" points="1102.69 249 1189.57 98 1269.25 248 1102.69 249"/><polygon class="cls-28" points="1241.3 195.4 1330.5 47.8 1366 106.75 1366 248 1269.25 248 1241.3 195.4"/><polygon class="cls-4" points="1213.36 142.8 1241.3 98 1273.09 142.8 1241.3 195.4 1213.36 142.8"/><polygon class="cls-2" points="1070.61 124 1078.93 142.8 1089.24 127 1094 136 1108.11 124 1119.62 138.38 1128.94 118.19 1102.69 62 1070.01 122.12 1070.61 124"/><polygon class="cls-2" points="1166.34 138.38 1172.88 179.17 1181.05 158.78 1189.57 161.45 1199.69 155 1209 169 1217.9 151.33 1189.57 98 1166.34 138.38"/><polygon class="cls-2" points="1230.44 115.41 1241.3 131.71 1250.98 123.56 1253.66 115.41 1241.3 98 1230.44 115.41"/><polygon class="cls-2" points="1295.93 105.01 1299.86 118.19 1308.5 105.01 1318.71 142.8 1330.5 114.86 1338.4 121.06 1338.4 142.8 1357 124 1357 105.01 1360.73 98 1330.5 47.8 1295.93 105.01"/><g id="skygger-2" data-name="skygger"><polygon class="cls-15" points="1066.14 129.25 1077.95 155 1088 140 1094.41 147.9 1108 134 1122 151 1133.2 127.32 1128.94 118.19 1120 138 1108.11 124 1094 136 1089.24 127 1079.05 142.8 1070.01 122.12 1066.14 129.25"/><polygon class="cls-15" points="1160.86 147.9 1170 191 1183 167 1192.12 169.45 1198.97 163.98 1209.78 179.17 1221.51 158.14 1217.9 151.33 1209 169 1199.69 155 1189.57 161.56 1181 159 1173 179 1166.34 138.38 1160.86 147.9"/><polygon class="cls-15" points="1227.5 120.14 1240.07 138.59 1256 126 1257.01 120.14 1253.66 115.41 1251 123 1241.35 131.71 1230.44 115.41 1227.5 120.14"/><polygon class="cls-15" points="1292.45 110.76 1298.42 131.71 1307 120 1318 160 1331 126 1334 129 1334 157.3 1363 129 1363 110.76 1365.23 105.47 1360.73 98 1357 105 1357 124 1339 143 1338.31 120.99 1330.5 114.86 1319 142 1308.5 105.01 1300 118 1295.93 105.01 1292.45 110.76"/></g></g><g id="kasse9"><path class="cls-41" d="M391,64.59a70.49,70.49,0,0,0-53.51-17.06C305,51,292.31,72.17,258.65,64.59s-61.29-39.19-83-37.89S147,42.17,147,42.17s32,6.26,11.51,24S117,54.65,97,54.32,47.83,73,24.41,71,1,60.76,1,60.76L0,172.53H390Z"/><path class="cls-42" d="M390,137.28c-5.5,5.78-41.5-2.78-61.5-7.78s-38,10-53.45,8.64S233.5,107.5,207.77,104.8s-12.27,12.7-65.05-10.46S95.5,119.5,95.5,119.5c1-8,12-9,18-6.17s11,14.17,3.25,27.84S89.5,132.5,56.5,121.5s-32,9-32,9c14-7,29,13,12.67,17.8S0,138.14,0,138.14L1,222H390Z"/><path class="cls-43" d="M390,188.14s-20.85,15-37.17,10.16-1.33-24.8,12.67-17.8c0,0,1-20-32-9S281,204.85,273.26,191.17s-2.74-25,3.25-27.84,17-1.83,18,6.17c0,0,5.57-48.32-47.22-25.16S208,152.1,182.23,154.8s-51.82,32-67.28,33.34S81.5,174.5,61.5,179.5,5.5,193.06,0,187.28V249H390Z"/><path class="cls-44" d="M390,219.76S390,228,366.59,230,314,213,294,213.32s-41,29.68-61.51,11.9S244,201.17,244,201.17,237,187,215.32,185.7s-49.32,30.3-83,37.89S86,210,53.51,206.53A70.49,70.49,0,0,0,0,223.59V249H390Z"/><circle class="cls-42" cx="30.5" cy="11.5" r="0.5"/><g id="skygger-3" data-name="skygger"><path class="cls-15" d="M95.5,119.5S95,107,108,107s17,10,18,14,1,16-2,19-5,6-9,7-11.76-3-11.76-3,10.37,6.15,15.07-5.91c0,0,3-7.72,2.35-11.39s-.67-5.9-2.17-8.28-4-5.53-5.74-5.46-2.62-1.86-8.19-.89-5.69,2.07-5.69,2.07A8.44,8.44,0,0,0,95.5,119.5Z"/><path class="cls-15" d="M24.5,130.5S31,123,42,131s1.33,16.16,1.33,16.16a24.44,24.44,0,0,1-14.18,2.07s8.73.24,10.79-2c0,0,4.36-2,4.21-6.14A11.28,11.28,0,0,0,42,134.65a27.42,27.42,0,0,0-5.44-4.27c-2.6-1.38-6.67-1.29-6.67-1.29A11.16,11.16,0,0,0,24.5,130.5Z"/><path class="cls-15" d="M147,42.17S162,35,170,54s-11.5,19.18-11.5,19.18-6.5,1.3-11.5-1.44c0,0,13.09-2.2,17.54-13S154,44.38,154,44.38,150,42.35,147,42.17Z"/><path class="cls-15" d="M294.5,169.5s.11-20.53-26.19-5.52c0,0-14.7,14.43,0,29.22,0,0,2.73,5,12.21,2.38,0,0-7-.25-9.77-9.92s-.06-15.34-.06-15.34,2.66-7.25,10.49-8.29,11.26,3.24,11.26,3.24A9.84,9.84,0,0,1,294.5,169.5Z"/><path class="cls-15" d="M365.5,180.5s-8.24-10.43-20.37,4,11.8,14.56,11.8,14.56-10.45-.44-11.19-7.77,7.38-10.7,7.38-10.7a14.17,14.17,0,0,1,8.32-1.36C366,180,365.5,180.5,365.5,180.5Z"/><path class="cls-15" d="M244,201.17S230,195,219,212s29.49,18.87,29.49,18.87-12.45-.34-17-6.61-8.07-9.1-3.8-15.18S244,201.17,244,201.17Z"/></g></g></svg>