<svg xmlns="http://www.w3.org/2000/svg" width="400" height="400" viewBox="0 0 400 400"><defs><style>.cls-1{fill:none;stroke:#000;stroke-miterlimit:10;}</style></defs><g id="kasse10"><polyline class="cls-1" points="82.54 199.41 172.63 161.52 172.63 147.48 160.66 147.48 200 111.8 240.63 146.52 229.63 146.52 229.63 160.52 322.13 197.02"/><polyline class="cls-1" points="72.13 261.02 82.54 242.24 103.49 233.69 200 194.31 320.13 243.02 332.13 265.02"/><path class="cls-1" d="M103.13,211l.36,22.67-20.95,8.54V211S92.13,193,103.13,211Z"/><path class="cls-1" d="M115.26,228.89V196.14s10.86-18.89,22.87,0v23.42"/><path class="cls-1" d="M150.66,214.44V183.81s11.47-20.79,21.47.21v21.66"/><path class="cls-1" d="M183.07,201.22v-38.4s17.06-33.8,35.06.2v38.64"/><path class="cls-1" d="M230.33,206.61V183.36s10.9-20.66,22.35,0v31.08"/><path class="cls-1" d="M265.28,220.78V197.51s9.85-19.49,22.85-.49v33"/><path class="cls-1" d="M299.77,234.77,320.13,243V211.66s-8.72-18.37-20.36,0Z"/><path class="cls-1" d="M133.13,265s3.13-20.45,18-32c22.39-17.39,71.27-27.79,109,7,9.29,8.56,11.76,22.31,10,25"/><path d="M63.51,263.65c3.23-4.21,9.32-3.36,13.72-1.81,5,1.79,9.8,5.19,15.38,5a11.71,11.71,0,0,0,6.66-2.51c2-1.44,3.7-3.22,5.9-4.3,4.49-2.18,8.67.65,12.29,3.17,3.31,2.29,6.93,4.82,11.17,4.28,4.64-.58,8.2-4.05,12.41-5.76a10,10,0,0,1,7.16-.31,32.18,32.18,0,0,1,6.22,3.42c3.58,2.24,7.36,3.77,11.5,2.06s7-5.24,11-7.07c4.75-2.17,9.09,0,13.12,2.64,3.53,2.29,7.27,5,11.68,4.8,4.64-.16,8.63-3,12.67-4.93a15.82,15.82,0,0,1,7-1.88,13.73,13.73,0,0,1,7,2.5c3.77,2.34,7.48,5.33,12.21,4.63,4.39-.64,7.94-3.69,11.84-5.55a11.41,11.41,0,0,1,7.24-1.24,18.91,18.91,0,0,1,6.52,3.28c3.77,2.56,7.51,4.84,12.23,3.63,5.37-1.39,9.62-5.33,15.47-4.82a38.53,38.53,0,0,1,9,2.44,46.41,46.41,0,0,0,8.68,2.2,40.6,40.6,0,0,0,24.19-4c.43-.22.05-.87-.38-.65a40.17,40.17,0,0,1-17.69,4.34,39.41,39.41,0,0,1-9.12-.94c-2.91-.65-5.68-1.74-8.51-2.67a22.54,22.54,0,0,0-8.59-1.44,19.73,19.73,0,0,0-6.88,2.16c-2.44,1.16-4.88,2.53-7.59,3a11.22,11.22,0,0,1-7.61-1.92c-3.75-2.26-7.31-5.64-12-5.44-4.4.19-8.08,3.12-11.83,5.11a13.71,13.71,0,0,1-6.87,2c-2.6-.1-4.91-1.38-7.06-2.75-3.77-2.41-7.45-5.07-12.17-4.35s-8.56,3.79-12.88,5.52a12.81,12.81,0,0,1-7.27.95,19.38,19.38,0,0,1-6.42-2.89c-3.53-2.22-7.16-5.15-11.52-5.3s-7.84,2.81-11.15,5.25a18.29,18.29,0,0,1-5.9,3.27,9.89,9.89,0,0,1-7.17-1.07c-3.85-2-7.34-5.35-11.89-5.46s-8.3,3.06-12.13,5a11.6,11.6,0,0,1-7.27,1.53,16.33,16.33,0,0,1-6-2.74c-3.28-2.15-6.59-5.15-10.67-5.45-4.86-.37-7.85,3.77-11.59,6.07-5.76,3.53-12.2.07-17.63-2.39-3.84-1.73-8.43-3.1-12.63-1.94a8.34,8.34,0,0,0-4.5,3c-.29.38.36.75.65.38Z"/><path d="M64,284.49c3.74-4.22,10-1.44,13.88,1s8.18,5.46,13.2,4.42c8.46-1.75,14.29-12.09,23.76-8.69,4.38,1.57,8.08,5,12.84,5.49,4.95.49,8.79-3.08,13.18-4.67,9.66-3.53,16.45,8.47,26.16,6.07,4.74-1.17,8.47-4.7,13.17-6,5.17-1.39,9.7,1.44,14.18,3.6,4.18,2,8.26,3,12.7,1.17s8.9-5.64,14.13-4.77c4.95.83,8.75,4.75,13.71,5.58,4.53.77,8.69-1.55,12.58-3.54a28.06,28.06,0,0,1,6.69-2.69,12.66,12.66,0,0,1,7.58.82c4.31,1.76,8.09,5,12.77,5.8s8.49-1.68,12.4-3.76c2.32-1.24,4.8-2.36,7.48-2.26s5.17,1.38,7.52,2.62a28.23,28.23,0,0,0,6.79,2.95,16.08,16.08,0,0,0,6.59,0c4.9-.89,9.39-3.25,14.28-4.21a14.84,14.84,0,0,1,7.37.26c.46.15.65-.57.19-.72-9.93-3.15-18.92,6.55-28.84,3.77-4.79-1.35-8.75-5.25-13.9-5.45-4.75-.18-8.63,3.08-12.74,4.93a11.84,11.84,0,0,1-7.85.93,26.57,26.57,0,0,1-6.56-2.92c-4-2.2-8-4.44-12.73-3.62s-8.77,4-13.31,5.62a12.09,12.09,0,0,1-7.47.41,38.66,38.66,0,0,1-7-3.3,16.85,16.85,0,0,0-6.38-2.1,13.17,13.17,0,0,0-6.39,1.39c-4.76,2.14-9.06,5.54-14.58,4.18-4.76-1.18-8.69-4.49-13.48-5.56s-8.73,1.07-12.73,3.28a24.16,24.16,0,0,1-6.88,2.93,12.29,12.29,0,0,1-7.49-1.1c-4.11-1.82-7.79-4.94-12.31-5.69-4.89-.81-8.71,2.18-12.92,4.07a11,11,0,0,1-7.79.79,36.59,36.59,0,0,1-6.91-3.32c-3.88-2.09-7.83-3.33-12.13-1.7-4,1.52-7.25,4.47-10.92,6.6a14.47,14.47,0,0,1-6.47,2.23c-2.86.14-5.48-1.06-7.87-2.51-4.07-2.46-8.07-5.7-13.13-5.28A7.14,7.14,0,0,0,63.48,284c-.32.36.21.9.53.53Z"/></g></svg>